<?xml version="1.0" encoding="utf-8"?>
<!-- Generator: Adobe Illustrator 16.0.0, SVG Export Plug-In . SVG Version: 6.00 Build 0)  -->
<!DOCTYPE svg PUBLIC "-//W3C//DTD SVG 1.1//EN" "http://www.w3.org/Graphics/SVG/1.1/DTD/svg11.dtd">
<svg version="1.1" id="Layer_1" xmlns="http://www.w3.org/2000/svg" xmlns:xlink="http://www.w3.org/1999/xlink" x="0px" y="0px"
	 width="974.625px" height="424.479px" viewBox="0 0 974.625 424.479" enable-background="new 0 0 974.625 424.479"
	 xml:space="preserve">
<g>
	<path fill="#333333" d="M249.589,309.514c-6.068,7.369-9.969,11.051-11.7,11.051c7.582,0,2.275-2.488-15.925-7.476
		c-17.55-5.2-27.625-7.581-30.225-7.149c-3.687-0.432-5.525-2.164-5.525-5.201c0,5.637,1.731,2.601,5.2-9.1
		c3.463-11.699,5.2-20.363,5.2-26v-15.6c0-11.7-2.712-17.551-8.125-17.551c-0.65,0-1.788,0.326-3.413,0.976
		s-2.656,0.976-3.087,0.976c-10.4,0-16.25,0.218-17.55,0.649c-3.687,1.3-5.525,5.743-5.525,13.325v24.375
		c0,7.586-2.925,17.662-8.775,30.225c-1.087,2.168-2.712,4.662-4.875,7.475c-2.168,2.818-4.769,5.963-7.8,9.426
		c-6.937,7.582-12.137,11.375-15.6,11.375c-2.818,0-4.225-2.6-4.225-7.801c0-0.436,0.65-3.138,1.95-8.125
		c0.863-2.381,1.462-4.275,1.787-5.688c0.325-1.406,0.594-2.325,0.812-2.762c-0.218,0.65-0.325-2.382-0.325-9.1
		c0-0.432,0.375-1.139,1.137-2.113c0.757-0.975,1.138-1.676,1.138-2.112v-62.075c0-0.65,0.106-1.568,0.325-2.762
		c0.213-1.189,0.325-2.113,0.325-2.764v-19.5c0-15.162-1.3-23.613-3.9-25.35c-1.519,0.219-3.306,0.488-5.362,0.812
		c-2.062,0.325-4.5,0.924-7.312,1.787c-9.1,3.25-12.894,17.875-11.375,43.875l2.6,40.625l-2.6,18.525
		c0,0.438,0.269,1.031,0.812,1.787c0.538,0.762,0.812,1.25,0.812,1.463c0.65,4.337,0.975,6.938,0.975,7.801
		c0,15.818-6.718,31.412-20.15,46.799c-11.268,13.214-25.137,23.613-41.6,31.201c0-0.219-0.162-0.812-0.487-1.788
		s-0.487-1.574-0.487-1.788c0-0.436,2.813-4.117,8.45-11.049c5.414-6.719,8.664-10.619,9.75-11.701
		c5.85-11.049,8.775-18.418,8.775-22.1v-31.199c0-0.432-0.325-1.244-0.975-2.438c-0.65-1.189-0.975-2.22-0.975-3.088
		c-0.218-3.463-0.381-8.014-0.488-13.65c-0.111-5.631-0.162-12.562-0.162-20.8c0-29.464,8.125-53.839,24.375-73.125
		c0.65-0.649,1.676-1.462,3.087-2.438c1.407-0.976,2.869-1.894,4.387-2.763c1.514-0.863,3.032-1.625,4.55-2.275
		c1.513-0.649,2.6-0.975,3.25-0.975c0.432,0,0.701,0.111,0.812,0.325c0.106,0.218,0.375,0.325,0.812,0.325
		c0.65,0,3.138-0.65,7.475-1.95c2.163-0.863,3.951-1.462,5.362-1.788c1.407-0.324,2.544-0.594,3.413-0.812
		c5.631-0.432,11.157-1.081,16.575-1.949c5.414-0.863,10.832-2.057,16.25-3.575c7.582-1.731,11.588-2.601,12.025-2.601
		c0.65,0,0.975,0.112,0.975,0.326c0,0.218,0.213,0.324,0.65,0.324c2.6,0,4.875-1.514,6.825-4.55c0.65,0.868,1.732,1.3,3.25,1.3
		c2.164,0,5.414-1.188,9.75-3.574c4.332-2.601,6.825-4.875,7.475-6.826c-0.868,0-2.493-0.537-4.875-1.625
		c-2.387-1.081-3.793-1.625-4.225-1.625c-0.437,0-0.65,0.112-0.65,0.326c0,0.218-0.325,0.324-0.975,0.324
		c13.65,0,3.138-5.199-31.525-15.6c-34.887-10.4-54.6-15.6-59.15-15.6c-0.437,0-1.138,0.273-2.113,0.812
		c-0.975,0.543-1.787,0.812-2.438,0.812c-0.437,0-1.031-0.107-1.787-0.326c-0.762-0.213-1.356-0.324-1.788-0.324l-17.225,6.175
		c-0.437,0.649-0.868,1.462-1.3,2.438c-0.437,0.976-0.869,2.112-1.3,3.413c1.082,2.6,1.625,6.5,1.625,11.699
		c0,4.769-1.193,7.15-3.575,7.15c-0.65,0-1.25-0.432-1.788-1.301c-0.543-0.863-1.087-1.949-1.625-3.25
		c-0.543-1.299-0.975-2.6-1.3-3.899c-0.325-1.3-0.487-2.274-0.487-2.925c0-10.613,6.5-20.363,19.5-29.25
		c11.913-8.014,23.507-12.025,34.775-12.025c1.95,0,4.875,0.274,8.775,0.812c3.9,0.543,6.825,0.812,8.775,0.812
		c0.432,0,1.082-0.213,1.95-0.65c0.863-0.432,1.513-0.649,1.95-0.649c1.513,0.649,2.707,1.193,3.575,1.625
		c0.863,0.437,1.732,0.868,2.6,1.3c0.863,0.438,1.407,0.65,1.625,0.65c7.582,1.3,15.925,4.443,25.025,9.425
		c1.95,1.087,8.775,3.687,20.475,7.8c11.482,4.119,17.982,6.176,19.5,6.176c1.513,0,3.575,0.218,6.175,0.649
		c2.6,0.437,4.438,0.649,5.525,0.649c1.513,0,3.737-0.432,6.663-1.299c2.925-0.863,5.144-1.301,6.662-1.301
		c0.213,0,0.539,0.111,0.975,0.325c0.432,0.218,0.757,0.325,0.975,0.325c0.65,0,3.788-1.301,9.425-3.9
		c5.632-2.812,8.882-4.225,9.75-4.225c2.6,0,3.9,1.518,3.9,4.55c0,2.601-2.818,7.368-8.45,14.3c-1.737,0.869-4.55,2.818-8.45,5.85
		c-6.287,8.237-9.425,12.787-9.425,13.65c0-0.65,0.65,0.762,1.95,4.225c0.65,1.737,0.975,3.469,0.975,5.201
		c0,1.086-0.111,2.711-0.325,4.875c-0.218,2.168-0.325,3.686-0.325,4.549v17.875c0,0.438-0.163,2.764-0.487,6.988
		c-0.325,4.225-0.706,10.35-1.138,18.362l0.65,3.575c0.65,2.6,0.975,6.287,0.975,11.05v34.774c0,8.237,1.082,13.326,3.25,15.275
		c2.382,1.087,4.763,2.225,7.15,3.412c2.382,1.193,4.764,2.332,7.15,3.413c7.15,4.337,10.725,7.476,10.725,9.425
		C258.689,297.275,255.652,302.15,249.589,309.514z M196.126,175.451c-0.325-1.838-0.706-4.275-1.137-7.312
		c-1.087-5.85-1.843-9.207-2.275-10.074c-0.219,1.949-3.362,4.443-9.425,7.475c-6.287,3.037-10.075,5.525-11.375,7.475
		c-1.518-0.863-2.711-1.3-3.575-1.3c0.65,0-3.9,2.387-13.65,7.149c1.514,3.25,2.275,8.562,2.275,15.926
		c-0.219,7.15,0,12.35,0.65,15.6c4.113-0.863,7.582-1.3,10.4-1.3c0.432,0,1.138,0.218,2.112,0.649
		c0.975,0.438,1.569,0.65,1.788,0.65c0.65,0,1.082-0.213,1.3-0.65c0.213-0.432,0.538-0.649,0.975-0.649
		c0.432,0,0.757,0.218,0.975,0.649c0.213,0.438,0.65,0.65,1.3,0.65c1.082,0,2.65-0.213,4.712-0.65
		c2.057-0.432,3.625-0.649,4.712-0.649c0.213,0,0.919,0.218,2.112,0.649c1.188,0.438,1.895,0.65,2.113,0.65
		c1.082,0,2.326-1.082,3.737-3.25c1.407-2.163,2.113-3.682,2.113-4.55c0-0.649-0.437-2.112-1.3-4.388
		c-0.868-2.275-1.3-3.737-1.3-4.387c0-1.514,0.538-3.845,1.625-6.988c1.082-3.139,1.625-5.469,1.625-6.987
		C196.614,178.758,196.452,177.295,196.126,175.451z"/>
	<path fill="#333333" d="M288.403,97.469l15.234,0.146c14.648,0,29.297-2.197,51.27-2.197c50.098,0,72.656,20.947,72.656,52.734
		c0,20.361-9.521,45.41-33.838,51.855c27.246,1.172,48.926,26.367,48.926,53.76c0,40.283-20.654,68.848-90.088,68.848
		c-16.846,0-37.5-1.318-47.9-2.051h-16.26V97.469z M361.499,194.295c18.896,0,34.424-13.77,34.424-41.455
		c0-23.438-16.846-34.424-47.021-34.424c-5.859,0-23.877,0.439-27.979,1.904v73.242C332.642,195.32,349.634,194.295,361.499,194.295
		z M356.372,298.885c33.105,0,53.174-10.107,53.174-41.309c0-27.832-16.26-39.99-51.709-39.99c-11.865,0-27.832-0.439-36.914,0.732
		v77.197C326.05,298.738,345.386,298.885,356.372,298.885z"/>
	<path fill="#333333" d="M584.988,324.645c-19.04,0-35.7-2.949-49.98-8.84c-14.28-5.893-26.127-13.994-35.53-24.311
		c-9.408-10.312-16.437-22.439-21.08-36.381c-4.648-13.939-6.97-28.953-6.97-45.049c0-13.372,2.321-26.86,6.97-40.461
		c4.644-13.6,11.672-25.893,21.08-36.89c9.403-10.991,21.25-19.942,35.53-26.86c14.28-6.911,30.94-10.369,49.98-10.369
		c7.479,0,14.333,0.17,20.569,0.51c6.231,0.34,12.182,0.908,17.851,1.699c5.663,0.797,11.22,1.817,16.66,3.061
		c5.439,1.248,11.103,2.667,17,4.25c0.223,6.12,1.02,13.6,2.38,22.439c1.359,8.841,3.171,17.797,5.439,26.861
		c-1.816,0.908-3.628,1.359-5.439,1.359c-1.817,0-3.459-0.223-4.931-0.68c-1.477-0.452-2.438-1.7-2.89-3.74
		c-4.08-14.96-10.54-25.611-19.38-31.96c-8.84-6.343-21.648-9.521-38.42-9.521c-14.057,0-26.467,2.269-37.23,6.801
		c-10.769,4.537-19.837,10.879-27.2,19.039c-7.368,8.16-12.92,17.967-16.659,29.41c-3.74,11.449-5.61,24.199-5.61,38.25
		c0,15.641,2.38,30.037,7.14,43.18c4.761,13.148,11.162,24.48,19.21,34c8.044,9.521,17.452,16.889,28.221,22.101
		c10.763,5.217,22.27,7.819,34.51,7.819c9.743,0,17.962-0.961,24.65-2.889c6.683-1.924,12.239-4.702,16.659-8.33
		c4.42-3.623,8.16-8.102,11.221-13.431c3.06-5.323,5.949-11.39,8.67-18.19c1.583-3.399,4.303-5.1,8.16-5.1
		c1.131,0,2.321,0.17,3.569,0.51c1.243,0.34,2.21,0.738,2.891,1.19c-2.721,7.937-5.44,16.66-8.16,26.181
		c-2.721,9.52-4.988,19.039-6.8,28.559c-11.108,1.812-22.44,3.23-34,4.25C611.508,324.134,598.812,324.645,584.988,324.645z"/>
	<path fill="#333333" d="M700.545,295.604h28.161V119.279h-28.161V94.639h96.322c18.881,0,32.961,0.96,48.001,5.44
		c43.201,13.44,71.362,52.481,71.362,107.522c0,54.721-27.201,92.802-71.362,106.883c-14.72,4.8-29.76,6.08-47.681,6.08h-96.643
		V295.604z M795.268,294.323c14.721,0,26.881-1.28,38.4-5.76c30.401-10.561,49.281-39.681,49.281-80.962
		c0-41.602-18.88-70.722-48.961-81.602c-12.48-4.48-24-5.121-38.721-5.121h-34.561v173.444H795.268z"/>
</g>
<line fill="none" stroke="#B65D98" stroke-width="4" stroke-miterlimit="10" x1="-1.109" y1="92.576" x2="975.556" y2="92.576"/>
<line fill="none" stroke="#B65D98" stroke-width="4" stroke-miterlimit="10" x1="-1.109" y1="157.072" x2="975.556" y2="157.072"/>
<line fill="none" stroke="#B65D98" stroke-width="4" stroke-miterlimit="10" x1="-1.109" y1="320.564" x2="975.556" y2="320.564"/>
</svg>
