<?xml version="1.0" encoding="utf-8"?>
<!-- Generator: Adobe Illustrator 16.0.0, SVG Export Plug-In . SVG Version: 6.00 Build 0)  -->
<!DOCTYPE svg PUBLIC "-//W3C//DTD SVG 1.1//EN" "http://www.w3.org/Graphics/SVG/1.1/DTD/svg11.dtd">
<svg version="1.1" xmlns="http://www.w3.org/2000/svg" xmlns:xlink="http://www.w3.org/1999/xlink" x="0px" y="0px" width="110px"
	 height="110px" viewBox="0 0 110 110" enable-background="new 0 0 110 110" xml:space="preserve">
<g id="Layer_1" display="none">
</g>
<g id="Layer_3" display="none">
</g>
<g id="Layer_2">
	<g>
		<circle fill="#FFFFFF" cx="55.173" cy="54.61" r="50.495"/>
		<g>
			<path fill="#216A8E" d="M79.026,18h11.385c-2.965-3-6.286-5.197-9.889-7.292l-2.038,6.14C78.123,17.751,78.484,18,79.026,18z"/>
			<path fill="#216A8E" d="M77.039,25c-0.904,0-1.447,0.521-1.809,1.425L64.385,58.41c-1.627,4.519-2.531,8.476-2.531,11.729
				c0,3.615,3.797,4.861,6.869,4.861h1.809c1.266,0,1.807,0.738,1.807,1.459c0,1.085-1.084,1.635-2.711,1.635
				c-4.339,0-12.11-0.449-14.1-0.449c-1.988,0-11.93,0.59-20.426,0.59c-2.352,0-3.436-0.338-3.436-1.423
				c0-0.723,0.724-1.074,1.627-1.074c1.266,0,3.797-0.174,5.242-0.354c8.315-1.085,11.932-7.951,15.185-16.99L72.453,7.148
				c-5.392-1.963-11.211-3.034-17.279-3.034c-27.888,0-50.496,22.607-50.496,50.496c0,27.887,22.608,50.494,50.496,50.494
				c27.887,0,50.494-22.585,50.494-50.473c0-11.082-3.572-20.632-9.624-29.632H77.039z"/>
		</g>
	</g>
</g>
</svg>
