<?xml version="1.0" encoding="utf-8"?>
<!-- Generator: Adobe Illustrator 16.0.0, SVG Export Plug-In . SVG Version: 6.00 Build 0)  -->
<!DOCTYPE svg PUBLIC "-//W3C//DTD SVG 1.1//EN" "http://www.w3.org/Graphics/SVG/1.1/DTD/svg11.dtd">
<svg version="1.1" id="Layer_1" xmlns="http://www.w3.org/2000/svg" xmlns:xlink="http://www.w3.org/1999/xlink" x="0px" y="0px"
	 width="110px" height="110px" viewBox="0 0 110 110" enable-background="new 0 0 110 110" xml:space="preserve">
<g id="Layer_1_1_" display="none">
</g>
<g id="Layer_3" display="none">
</g>
<g id="Layer_2">
	<circle fill="#216A8E" cx="54.922" cy="54.077" r="50.495"/>
	<g enable-background="new    ">
		<path fill="#FFFFFF" d="M32.768,33.135l7.812,19.992h-2.94l-2.184-6.02H27l-2.24,6.02h-2.716l7.784-19.992H32.768z M34.616,44.867
			l-3.332-9.324h-0.056l-3.388,9.324H34.616z"/>
		<path fill="#FFFFFF" d="M44.612,33.135v7.477h0.056c0.392-0.803,1.008-1.387,1.848-1.75c0.84-0.364,1.764-0.546,2.772-0.546
			c1.12,0,2.095,0.205,2.926,0.615c0.831,0.411,1.521,0.966,2.072,1.666c0.55,0.7,0.966,1.508,1.245,2.422
			c0.281,0.915,0.421,1.886,0.421,2.912c0,1.027-0.136,1.998-0.406,2.912c-0.271,0.915-0.682,1.713-1.232,2.395
			c-0.551,0.682-1.242,1.218-2.072,1.609c-0.831,0.393-1.797,0.588-2.898,0.588c-0.354,0-0.751-0.037-1.19-0.111
			c-0.438-0.075-0.873-0.196-1.302-0.364c-0.43-0.168-0.836-0.396-1.218-0.686c-0.383-0.29-0.705-0.648-0.966-1.078h-0.056v1.932
			h-2.38V33.135H44.612z M53.166,43.789c-0.178-0.645-0.448-1.218-0.812-1.722c-0.364-0.505-0.831-0.905-1.4-1.204
			c-0.57-0.299-1.237-0.448-2.002-0.448c-0.803,0-1.484,0.159-2.044,0.476c-0.56,0.318-1.018,0.733-1.372,1.246
			c-0.355,0.514-0.612,1.097-0.77,1.75c-0.159,0.654-0.238,1.316-0.238,1.988c0,0.71,0.084,1.396,0.252,2.058
			c0.168,0.663,0.434,1.246,0.798,1.75c0.364,0.504,0.835,0.91,1.414,1.219c0.578,0.308,1.278,0.462,2.1,0.462
			s1.507-0.159,2.058-0.477c0.55-0.317,0.994-0.737,1.33-1.26s0.578-1.12,0.728-1.792c0.149-0.672,0.224-1.362,0.224-2.072
			C53.432,45.091,53.343,44.433,53.166,43.789z"/>
		<path fill="#FFFFFF" d="M67.403,41.171c-0.598-0.504-1.399-0.756-2.407-0.756c-0.859,0-1.578,0.159-2.156,0.476
			c-0.579,0.318-1.041,0.738-1.387,1.261s-0.592,1.124-0.742,1.806c-0.148,0.682-0.224,1.386-0.224,2.114
			c0,0.672,0.079,1.325,0.238,1.96c0.158,0.635,0.405,1.199,0.741,1.693c0.337,0.495,0.775,0.892,1.316,1.19
			s1.186,0.448,1.932,0.448c1.177,0,2.096-0.309,2.759-0.925c0.662-0.615,1.068-1.483,1.218-2.604h2.436
			c-0.262,1.792-0.928,3.174-2.002,4.144c-1.073,0.972-2.533,1.456-4.381,1.456c-1.102,0-2.078-0.177-2.927-0.531
			c-0.85-0.354-1.559-0.858-2.128-1.513c-0.57-0.653-0.999-1.432-1.288-2.338c-0.29-0.905-0.435-1.899-0.435-2.981
			c0-1.083,0.141-2.096,0.421-3.038s0.704-1.765,1.274-2.464c0.568-0.7,1.283-1.251,2.142-1.652s1.856-0.602,2.995-0.602
			c0.822,0,1.592,0.098,2.311,0.294c0.719,0.195,1.354,0.499,1.904,0.909c0.551,0.411,1.003,0.93,1.357,1.555
			c0.355,0.625,0.578,1.367,0.672,2.226H68.58C68.393,42.385,68,41.675,67.403,41.171z"/>
		<path fill="#FFFFFF" d="M84.344,53.127v-1.96h-0.057c-0.393,0.803-1.008,1.382-1.848,1.736s-1.764,0.531-2.772,0.531
			c-1.12,0-2.096-0.205-2.926-0.615c-0.831-0.411-1.521-0.962-2.072-1.652s-0.966-1.493-1.245-2.408
			c-0.281-0.914-0.421-1.885-0.421-2.912c0-1.026,0.136-1.997,0.406-2.912c0.271-0.914,0.681-1.712,1.231-2.394
			s1.242-1.223,2.072-1.624s1.797-0.602,2.898-0.602c0.373,0,0.773,0.037,1.203,0.111c0.43,0.075,0.859,0.201,1.289,0.378
			c0.429,0.178,0.835,0.411,1.218,0.7c0.382,0.29,0.704,0.648,0.966,1.078h0.057v-7.448h2.379v19.992H84.344z M75.789,47.989
			c0.178,0.644,0.448,1.218,0.812,1.722c0.363,0.504,0.83,0.905,1.399,1.204s1.236,0.448,2.002,0.448
			c0.803,0,1.484-0.159,2.044-0.477c0.561-0.317,1.018-0.732,1.372-1.246c0.354-0.513,0.611-1.096,0.771-1.75
			c0.158-0.653,0.238-1.315,0.238-1.987c0-0.71-0.084-1.396-0.252-2.059c-0.168-0.662-0.435-1.246-0.799-1.75
			c-0.363-0.504-0.836-0.91-1.414-1.218s-1.279-0.462-2.1-0.462c-0.803,0-1.484,0.159-2.044,0.476
			c-0.56,0.318-1.009,0.738-1.345,1.261s-0.578,1.119-0.728,1.792c-0.149,0.672-0.224,1.362-0.224,2.071
			C75.523,46.687,75.611,47.345,75.789,47.989z"/>
	</g>
	<g enable-background="new    ">
		<path fill="#FFFFFF" d="M25.291,71.788c0,1.5,0.265,1.735,2.045,1.78v0.559h-5.207v-0.559c1.382-0.045,1.618-0.295,1.618-1.678
			v-6.854c0-1.367-0.206-1.618-1.471-1.677v-0.559h8.502l0.162,2.81h-0.515c-0.25-1.677-0.912-2.104-3.016-2.104h-1.868
			c-0.162,0-0.25,0.103-0.25,0.25v4.442c1.898,0,2.648-0.354,2.78-1.839h0.515v4.31h-0.515c-0.206-1.5-0.779-1.868-2.78-1.883
			V71.788z"/>
		<path fill="#FFFFFF" d="M36.262,72.965c1.412,0.206,2.339,1.147,2.339,2.457c0,1.632-1.354,2.529-3.81,2.529
			c-2.192,0-3.707-0.838-3.707-2.059c0-0.824,0.588-1.472,1.309-1.472c0.338,0,0.632,0.104,0.897,0.31
			c-0.53,0.117-0.897,0.632-0.897,1.221c0,0.853,0.897,1.354,2.457,1.354c1.677,0,2.515-0.516,2.515-1.545
			c0-0.779-0.618-1.339-1.338-1.441c-0.927-0.133-2.104-0.265-2.633-0.324c-1.089-0.117-1.677-0.603-1.677-1.412
			c0-0.691,0.633-1.279,1.5-1.412v-0.059c-0.868-0.353-1.515-1.323-1.515-2.339c0-1.485,1.221-2.589,2.898-2.589
			c0.853,0,1.662,0.279,2.207,0.78c0.662-0.545,1.162-0.78,1.603-0.78c0.706,0,1.162,0.354,1.162,0.897
			c0,0.323-0.25,0.544-0.588,0.544c-0.544,0-0.618-0.456-1.103-0.456c-0.235,0-0.485,0.089-0.721,0.251
			c0.25,0.382,0.353,0.794,0.353,1.367c0,1.647-1.059,2.648-3.119,2.795c-1.191,0.089-1.604,0.206-1.604,0.618
			c0,0.309,0.368,0.441,1.044,0.485C34.776,72.759,35.364,72.832,36.262,72.965z M35.953,68.832c0-1.324-0.485-2.104-1.324-2.104
			s-1.383,0.809-1.383,2.088c0,1.295,0.559,2.148,1.397,2.148C35.467,70.965,35.953,70.17,35.953,68.832z"/>
		<path fill="#FFFFFF" d="M42.481,71.788c0,1.618,0.088,1.751,1.206,1.824v0.515h-3.913v-0.515c1.133-0.073,1.265-0.235,1.265-1.722
			v-6.163c0-1.147-0.029-1.809-0.103-2.162c-0.088-0.471-0.309-0.588-1.191-0.588v-0.501l2.707-0.559v5.604h0.059
			c0.603-0.779,1.81-1.339,2.883-1.339c0.897,0,1.706,0.339,2.118,0.868c0.338,0.441,0.485,1.133,0.485,2.383v2.354
			c0,1.604,0.088,1.751,1.206,1.824v0.515h-3.898v-0.515c1.118-0.059,1.235-0.235,1.235-1.722v-1.853
			c0-2.207-0.456-3.045-1.662-3.045c-0.912,0-1.721,0.5-2.147,1.323c-0.206,0.412-0.25,0.691-0.25,1.589V71.788z"/>
		<path fill="#FFFFFF" d="M52.893,71.788c0,1.515,0.206,1.78,1.368,1.824v0.515h-4.222v-0.515c1.191-0.059,1.412-0.339,1.412-1.722
			v-1.883c0-1.132-0.029-1.897-0.103-2.162c-0.088-0.456-0.368-0.588-1.338-0.588v-0.515l2.883-0.56V71.788z M52.113,62.286
			c0.515,0,0.912,0.396,0.912,0.912c0,0.515-0.397,0.911-0.912,0.911c-0.515,0-0.912-0.396-0.912-0.911
			C51.201,62.683,51.598,62.286,52.113,62.286z"/>
		<path fill="#FFFFFF" d="M57.686,74.156c0,2.441-1.073,3.795-3.015,3.795c-1.25,0-2.133-0.559-2.133-1.368
			c0-0.44,0.279-0.69,0.75-0.69c0.353,0,0.471,0.103,0.765,0.69c0.279,0.589,0.441,0.736,0.927,0.736
			c0.941,0,1.265-0.56,1.265-2.192v-5.119c0-1.132-0.029-1.897-0.103-2.162c-0.089-0.456-0.368-0.588-1.339-0.588v-0.515l2.883-0.56
			V74.156z M56.936,62.286c0.516,0,0.912,0.396,0.912,0.912c0,0.515-0.396,0.911-0.912,0.911c-0.515,0-0.912-0.396-0.912-0.911
			C56.023,62.683,56.421,62.286,56.936,62.286z"/>
		<path fill="#FFFFFF" d="M64.142,73.612c0.647,0,0.854-0.059,0.854-0.162c-0.015-0.147-0.339-0.588-0.81-1.162l-1.559-1.883
			l-0.545,0.515v0.868c0,1.515,0.191,1.78,1.369,1.824v0.515h-4.178v-0.515c1.176-0.044,1.412-0.324,1.412-1.722v-6.163
			c0-1.485,0-2.206-0.177-2.471c-0.177-0.279-0.573-0.279-1.265-0.279v-0.501l2.838-0.559v8.075l1.369-1.338
			c0.882-0.868,1.309-1.251,1.309-1.456c0-0.206-0.427-0.354-1.191-0.354v-0.515h3.824v0.515c-0.735,0-1.015,0.147-1.736,0.779
			l-2.117,1.883l2.912,3.295c0.559,0.647,0.809,0.81,1.559,0.81v0.515h-3.868V73.612z"/>
		<path fill="#FFFFFF" d="M71.155,71.832c0,1.486,0.177,1.736,1.31,1.78v0.515h-4.061v-0.515c1.162-0.059,1.383-0.324,1.383-1.677
			v-6.34c0-1.06-0.029-1.81-0.088-2.06c-0.104-0.456-0.383-0.573-1.324-0.573v-0.501l2.78-0.544V71.832z"/>
		<path fill="#FFFFFF" d="M76.111,71.773c0,1.633,0.088,1.766,1.206,1.839v0.515h-3.913v-0.515c1.133-0.073,1.266-0.235,1.266-1.722
			v-1.883c0-1.117-0.029-1.897-0.104-2.162c-0.103-0.5-0.294-0.588-1.191-0.588v-0.515l2.398-0.56l0.19,1.471h0.073
			c0.883-1,1.824-1.471,3.001-1.471c1.235,0,2.118,0.529,2.442,1.456h0.059c0.721-0.911,1.824-1.456,2.986-1.456
			c0.912,0,1.721,0.324,2.117,0.854c0.354,0.456,0.486,1.118,0.486,2.397v2.339c0,1.618,0.103,1.766,1.221,1.839v0.515h-3.913
			v-0.515c1.118-0.059,1.251-0.25,1.251-1.722v-1.853c0-2.251-0.457-3.045-1.722-3.045c-0.853,0-1.677,0.529-2.104,1.323
			c-0.206,0.397-0.25,0.662-0.25,1.589v1.868c0,1.618,0.089,1.766,1.235,1.839v0.515h-3.912v-0.515
			c1.117-0.073,1.235-0.235,1.235-1.722v-1.853c0-2.28-0.427-3.045-1.691-3.045c-0.868,0-1.722,0.529-2.118,1.323
			c-0.206,0.397-0.25,0.662-0.25,1.589V71.773z"/>
	</g>
</g>
</svg>
