<?xml version="1.0" encoding="utf-8"?>
<!-- Generator: Adobe Illustrator 16.0.0, SVG Export Plug-In . SVG Version: 6.00 Build 0)  -->
<!DOCTYPE svg PUBLIC "-//W3C//DTD SVG 1.1//EN" "http://www.w3.org/Graphics/SVG/1.1/DTD/svg11.dtd">
<svg version="1.1" xmlns="http://www.w3.org/2000/svg" xmlns:xlink="http://www.w3.org/1999/xlink" x="0px" y="0px" width="110px"
	 height="110px" viewBox="0 0 110 110" enable-background="new 0 0 110 110" xml:space="preserve">
<g id="Layer_1" display="none">
</g>
<g id="Layer_3" display="none">
</g>
<g id="Layer_2">
	<g>
		<circle fill="#216A8E" cx="54.437" cy="56.103" r="50.495"/>
		<g>
			<defs>
				<circle id="SVGID_11_" cx="54.437" cy="56.103" r="43.041"/>
			</defs>
			<clipPath id="SVGID_2_">
				<use xlink:href="#SVGID_11_"  overflow="visible"/>
			</clipPath>
			<g clip-path="url(#SVGID_2_)">
				<rect x="13" y="37" fill="#FFFFFF" width="86" height="3"/>
				<rect x="13" y="74" fill="#FFFFFF" width="86" height="2"/>
				<path fill="#FFFFFF" d="M10.392,28h24.33c0,0-3.804,6-7.971,6c-4.169,0-8.81,0-8.81,0S13.831,33,10.392,28z"/>
				<path fill="#FFFFFF" d="M36,9.959V35h12.146c0,0-9.146-1.969-9.146-4.487c0-2.517,0-19.715,0-19.715L36,9.959z"/>
				<path fill="#FFFFFF" d="M56.953,17.09c0,0,0.525-5.139,1.678-5.768c1.154-0.629,5.455,0,5.455,0s-2.794,1.14-2.622,1.739
					c0.171,0.6,0.313,6.65-1.888,8.958c-2.202,2.307-3.881,5.348-3.881,5.348s-0.314,2.412,0,3.146
					c0.314,0.734,1.469,2.518,1.469,2.518s2.167,0.419,2.657,0.629c0.488,0.21,0.697,0.944,0.697,0.944s-5.557-0.629-6.291-0.525
					c-0.734,0.105-3.881,0.525-3.881,0.525s1.05-0.42,0.839-1.888c-0.209-1.468-0.943-2.937-0.839-3.46
					c0.104-0.524,1.26-1.888,1.26-1.888s-3.147,0.314-4.196,0c-1.049-0.315-1.049-0.315-1.049-0.315s5.873-7.865,7.236-8.495
					C54.962,17.929,56.953,17.09,56.953,17.09z"/>
				<path fill="#216A8E" d="M52.538,27.997c0,0-1.304,1.363-0.729,2.517c0.572,1.154,0.925,2.518,0.925,2.518s0.319-0.315,2.47,0
					c2.15,0.314,1.905,0.314,1.905,0.314S55,32.086,55,30.513c0-1.572,0-2.517,0-2.517S54.185,28.037,52.538,27.997z"/>
				<path fill="#FFFFFF" d="M48.146,51.068c0,0,0.523-5.138,1.676-5.768c1.155-0.629,5.454,0,5.454,0s-2.791,1.14-2.621,1.74
					s0.314,6.65-1.887,8.957c-2.203,2.308-3.881,5.349-3.881,5.349s-0.316,2.412,0,3.146c0.314,0.734,1.469,2.517,1.469,2.517
					s2.166,0.42,2.656,0.629c0.49,0.21,0.699,0.945,0.699,0.945s-5.559-0.63-6.293-0.525c-0.734,0.104-3.88,0.525-3.88,0.525
					s1.048-0.42,0.839-1.888c-0.209-1.468-0.945-2.937-0.839-3.46c0.104-0.525,1.258-1.888,1.258-1.888s-3.146,0.315-4.195,0
					c-1.047-0.315-1.047-0.315-1.047-0.315s5.872-7.865,7.236-8.494C46.152,51.908,48.146,51.068,48.146,51.068z"/>
				<path fill="#216A8E" d="M43.619,61.975c0,0-1.265,1.363-0.68,2.517c0.583,1.154,0.971,2.517,0.971,2.517s0.34-0.314,2.525,0
					s1.824,0.314,1.824,0.314S46,66.065,46,64.492c0-1.573,0-2.517,0-2.517S45.295,62.015,43.619,61.975z"/>
				<polygon fill="#FFFFFF" points="32.372,82 33.593,80.611 35.232,82.281 36.868,80.823 38.515,82.267 40.123,80.885 
					41.769,82.315 43.227,81.058 45.112,82.69 47.098,80.972 48.729,82.384 50.571,80.789 52.443,82.408 54.389,80.563 55.588,82 
					56.849,82 54.389,78.886 52.443,80.649 50.571,79.071 48.729,80.687 47.098,79.285 45.112,81.009 43.227,79.379 41.769,80.64 
					40.123,79.216 38.515,80.608 36.868,79.185 35.232,80.683 33.593,78.935 31.051,82 				"/>
				<polygon fill="#FFFFFF" points="63.313,34 64.375,32.282 65.801,33.786 67.222,32.245 68.653,33.648 70.051,32.245 
					71.482,33.665 72.748,32.402 74.388,34.032 76.113,32.313 77.532,33.725 79.135,32.129 80.761,33.747 82.453,32.234 83.495,34 
					84.592,34 82.453,30.557 80.761,32.154 79.135,30.493 77.532,32.068 76.113,30.646 74.388,32.359 72.748,30.724 71.482,31.982 
					70.051,30.558 68.653,31.949 67.222,30.524 65.801,32.023 64.375,30.604 62.164,34 				"/>
				<polygon fill="#FFFFFF" points="29.855,94 31.076,92.275 32.716,93.775 34.352,92.233 35.998,93.636 37.606,92.232 
					39.254,93.651 40.708,92.389 42.594,94.019 44.58,92.3 46.211,93.71 48.056,92.115 49.925,93.733 51.871,92.227 53.07,94 
					54.332,94 51.871,90.549 49.925,92.144 48.056,90.481 46.211,92.055 44.58,90.633 42.594,92.345 40.708,90.71 39.254,91.968 
					37.606,90.544 35.998,91.935 34.352,90.511 32.716,92.009 31.076,90.597 28.533,94 				"/>
				<rect x="65" y="20" fill="#FFFFFF" width="1" height="9"/>
				<rect x="74" y="20" fill="#FFFFFF" width="2" height="9"/>
				<rect x="81" y="20" fill="#FFFFFF" width="2" height="9"/>
				<path fill="#FFFFFF" d="M90.583,11.847c0,0-0.979,1.083-0.839,1.853c0.139,0.769,0.412,1.276,0.412,1.276
					s-1.881,0.113-1.881,1.162s-0.699,4.181-1.188,4.881c-0.49,0.699-0.334,0.693-0.334,0.693S86,26.668,86,28.766
					C86,30.863,86,35,86,35h1.996c0,0-0.14-1.089-0.77-1.194c-0.629-0.104-0.629-0.335-0.629-0.335s-0.002-3.57,0.351-4.31
					c0.351-0.74,3.146-0.338,3.146-0.338s0.909,3.328,1.678,4.236c0.768,0.909,0.768,0.895,0.768,0.895l2.728,0.132
					c0,0-0.278-0.633-1.118-0.738s-0.84-0.105-0.84-0.105s-0.908-1.039-1.188-2.175S91.701,29,91.701,29h1.328
					c0,0-3.285-3.474-3.285-4.172c0-0.7,0-1.598,0.141-2.611c0.139-1.013,1.328-3.769,1.328-3.769s1.398,0.929,1.677,0.859
					c0.28-0.07,0.909-1.004,0.909-1.004s1.259,1.596,2.656,0.478c1.399-1.119,2.868-3.642,2.728-5.181
					c-0.141-1.537-0.489-1.751-0.489-1.751s0.086,2.935-1.216,4.333c-1.302,1.398-2.489,1.398-2.489,1.398s1.887-2.378,1.887-3.427
					c0-1.049-0.35-2.307-0.35-2.307s-0.628,0.14-0.559,0.769c0.069,0.629-1.119,3.636-1.818,3.636s-1.708-0.35-1.708-0.35
					s1.079-0.28,1.498-1.189c0.421-0.909,0.212-2.516-0.278-2.866C93.17,11.497,91.84,10.938,90.583,11.847z"/>
				<ellipse fill="#FFFFFF" cx="22.645" cy="20.683" rx="6.381" ry="5.53"/>
				<path fill="#FFFFFF" d="M12.908,49h12.584C25.492,49,19.305,37,12.908,49z"/>
				<path fill="#FFFFFF" d="M28.01,49h12.584C40.594,49,34.407,37,28.01,49z"/>
				<path fill="#FFFFFF" d="M12.069,82h12.584C24.653,82,18.466,74,12.069,82z"/>
				<ellipse fill="#FFFFFF" cx="71.018" cy="56.984" rx="6.932" ry="6.098"/>
				<path fill="#FFFFFF" d="M59.398,49.794c0,0-1.713-2.059-1.369-3.597c0.342-1.538,1.199-2.564,2.452-2.564
					c1.257,0,3.252,1.083,2.854,2.852s-1.654,3.651-1.654,3.651s0.628,1.027,0.628,3.252s-0.913,2.714-0.913,2.714l0.114,5.873
					c0,0,2.91,6.053,2.91,6.607c0,0.553-1.027,1.124-1.541,0.268s-2.51-5.768-2.51-5.768l-2.854,5.824c0,0-2.396,0.571-1.597-0.969
					c0.799-1.541,2.737-5.648,2.737-5.648l0.229-8.272c0,0-0.684-0.571-0.571-1.54C58.429,51.506,59.398,49.794,59.398,49.794z"/>
				<path fill="#216A8E" d="M60.481,49c0,0-1.198-1.61-1.141-2.637s0.629-1.964,1.599-1.755c0.969,0.209,1.14,1.359,0.855,2.5
					C61.51,48.249,61.109,49,61.109,49H60.481z"/>
				<path fill="#FFFFFF" d="M80.373,50.214c0,0-1.712-2.06-1.37-3.597c0.344-1.538,1.198-2.564,2.454-2.564s3.251,1.083,2.853,2.852
					c-0.399,1.769-1.654,3.652-1.654,3.652s0.628,1.026,0.628,3.251s-0.913,2.714-0.913,2.714l0.113,5.872
					c0,0,2.91,6.054,2.91,6.607s-1.026,1.124-1.541,0.268c-0.514-0.856-2.509-5.768-2.509-5.768l-2.853,5.825
					c0,0-2.397,0.571-1.599-0.97c0.799-1.54,2.738-5.648,2.738-5.648l0.229-8.272c0,0-0.686-0.57-0.57-1.54
					C79.402,51.925,80.373,50.214,80.373,50.214z"/>
				<path fill="#216A8E" d="M81.457,50c0,0-1.198-1.899-1.142-2.927c0.058-1.027,0.628-2.11,1.598-1.9
					c0.971,0.209,1.142,1.576,0.856,2.717C82.483,49.032,82.085,50,82.085,50H81.457z"/>
				<path fill="#FFFFFF" d="M89.122,63.082l-4.336-0.509c0,0,1.142-2.11,1.769-2.567c0.629-0.457,0.629-0.457,0.629-0.457
					S89.294,61.252,89.122,63.082z"/>
				<path fill="#FFFFFF" d="M103.557,66.168c0,0-2.452,0.97-3.879,0.513c-1.426-0.456-2.283,0.8-4.108,0.914
					s-5.648-1.084-5.877-2.624c-0.228-1.541,1.484-4.622,5.079-3.138c3.594,1.483,2.854,3.138,5.134,3.766
					C102.188,66.225,103.557,66.168,103.557,66.168z"/>
				<path fill="#FFFFFF" d="M91,44.776v9.647c0,0,16.116-1.048,20.311-1.258c4.195-0.209,5.699-0.314,5.699-0.314
					s-1.66-1.259-3.968-1.154c-2.308,0.105-5.34,0.734-5.34,0.734s-1.042-0.992,0.845-1.543c1.887-0.553,3.356,0,3.356,0
					s-1.675-1.917-4.192-0.763c-2.518,1.153-1.887,1.783-1.887,1.783l-8.479,0.812c0,0-1.904,0.027-2.22-2.595
					c-0.313-2.622-0.594-4.918-1.748-5.5S91,44.776,91,44.776z"/>
				<path fill="#FFFFFF" d="M34.303,56.984c0,0-11.223,2.657-12.48,2.565c-1.259-0.092-6.396,0.002-6.396,0.002
					s-4.702,4.835-4.029,7.247s3.084,1.259,3.505,0.524c0.419-0.733,0.419-0.733,0.419-0.733s1.363,2.276,2.832,1.662
					c1.468-0.614,1.361-2.711,0.629-3.603c-0.733-0.892-2.938-3.828-2.938-3.828s3.67,0.209,7.551-0.314
					c3.881-0.524,11.536-2.308,11.641-2.727C35.141,57.36,34.303,56.984,34.303,56.984z"/>
				<path fill="#FFFFFF" d="M62.818,83.669c0,0,0.66-0.68,0.41-1.576C62.98,81.197,61.695,81,61.695,81h7.424
					c0,0-2.641,0.526-2.392,1.334c0.248,0.809,2.938,2.22,2.64,4.013c-0.299,1.793-1.195,3.345-2.49,3.495
					c-1.296,0.148-3.661,0.426-4.533-0.445c-0.871-0.872-1.722-1.537-1.793-2.938C60.478,85.015,60.951,84.114,62.818,83.669z"/>
				<path fill="#FFFFFF" d="M85.05,83.669c0,0,0.66-0.68,0.411-1.576C85.212,81.197,83.93,81,83.93,81h7.422
					c0,0-2.642,0.526-2.392,1.334c0.249,0.809,2.938,2.22,2.64,4.013c-0.298,1.793-1.195,3.345-2.489,3.495
					c-1.297,0.148-3.661,0.426-4.534-0.445c-0.871-0.872-1.723-1.537-1.792-2.938C82.711,85.015,83.184,84.114,85.05,83.669z"/>
				<path fill="#FFFFFF" d="M78.861,83.669c0,0-0.659-0.68-0.411-1.576C78.7,81.197,79.983,81,79.983,81h-7.423
					c0,0,2.641,0.526,2.391,1.334c-0.249,0.809-2.938,2.22-2.639,4.013c0.299,1.793,1.194,3.345,2.49,3.495
					c1.295,0.148,3.662,0.426,4.532-0.445c0.872-0.872,1.722-1.537,1.793-2.938C81.201,85.015,80.729,84.114,78.861,83.669z"/>
				<path fill="#FFFFFF" d="M73.524,14.493c0,0-8.034,0.821-8.471,1.259c-0.438,0.438-0.384,1.341,0.382,1.123
					c0.767-0.22,7.115-1.472,11.33-1.174c4.216,0.298,8.459,0.763,8.923,0.38c0.466-0.383,0.492-1.04-0.328-1.259
					c-0.821-0.219-5.282,0.137-6.733-0.219c-1.451-0.356-0.93-1.232-0.903-1.998c0.029-0.767-2.193-1.834-2.328-0.849
					c-0.135,0.985,0.111,2.135-0.49,2.053c-0.601-0.082-2.216-2.627-2.517-2.449c-0.302,0.177-0.576,1.19,0.383,2.093
					C73.729,14.356,73.592,14.301,73.524,14.493z"/>
			</g>
		</g>
	</g>
</g>
</svg>
