<?xml version="1.0" encoding="utf-8"?>
<!-- Generator: Adobe Illustrator 16.0.0, SVG Export Plug-In . SVG Version: 6.00 Build 0)  -->
<!DOCTYPE svg PUBLIC "-//W3C//DTD SVG 1.1//EN" "http://www.w3.org/Graphics/SVG/1.1/DTD/svg11.dtd">
<svg version="1.1" xmlns="http://www.w3.org/2000/svg" xmlns:xlink="http://www.w3.org/1999/xlink" x="0px" y="0px" width="110px"
	 height="110px" viewBox="0 0 110 110" enable-background="new 0 0 110 110" xml:space="preserve">
<g id="Layer_1" display="none">
</g>
<g id="Layer_3" display="none">
</g>
<g id="Layer_2">
	<g>
		<circle fill="#216A8E" cx="55.406" cy="55.103" r="50.495"/>
		<g>
			<g>
				<defs>
					<rect id="SVGID_13_" x="29" y="21" width="25" height="65"/>
				</defs>
				<clipPath id="SVGID_2_">
					<use xlink:href="#SVGID_13_"  overflow="visible"/>
				</clipPath>
				<g clip-path="url(#SVGID_2_)">
					<path fill="#2599BF" d="M52.016,23.416h8.748l20.764,57.208h-8.49l-5.973-17.135H44.621l-6.205,17.135h-7.943L52.016,23.416z
						 M64.866,57.179l-8.808-25.273l-9.152,25.273H64.866z"/>
				</g>
			</g>
			<g>
				<path fill="#FFFFFF" d="M54,33.255l7.732,23.87L54,57.179v6.31l11.631,0.1l2.647,6.739c0.294,0.904,0.67,1.623,0.763,2.128
					s0.232,0.974,0.232,1.345c0,1.223-0.329,3.009-1.071,3.487C67.455,77.766,66.081,79,63.982,79H62v1.598
					c3-0.16,6.883-0.265,8.745-0.319c1.858-0.052,3.706-0.08,4.876-0.08c1.221,0,2.247,0.027,4.054,0.08
					C81.481,80.333,84,80.438,87,80.598V79h0.343c-1.489,0-2.679-1.272-3.567-1.87c-0.892-0.597-1.628-2.136-2.213-3.545
					c-1.383-3.109-3.807-8.309-7.275-17.705C70.819,46.487,66.262,34,62.436,24H54V33.255z"/>
			</g>
		</g>
	</g>
</g>
</svg>
