<?xml version="1.0" encoding="utf-8"?>
<!-- Generator: Adobe Illustrator 16.0.0, SVG Export Plug-In . SVG Version: 6.00 Build 0)  -->
<!DOCTYPE svg PUBLIC "-//W3C//DTD SVG 1.1//EN" "http://www.w3.org/Graphics/SVG/1.1/DTD/svg11.dtd">
<svg version="1.1" xmlns="http://www.w3.org/2000/svg" xmlns:xlink="http://www.w3.org/1999/xlink" x="0px" y="0px" width="110px"
	 height="110px" viewBox="0 0 110 110" enable-background="new 0 0 110 110" xml:space="preserve">
<g id="Layer_1" display="none">
</g>
<g id="Layer_3" display="none">
</g>
<g id="Layer_2">
	<g>
		<circle fill="#216A8E" cx="55.254" cy="54.61" r="50.495"/>
		<g>
			<path fill="#FFFFFF" d="M76.271,73.893c0,0.465-0.523,0.697-1.572,0.697c-0.292,0-0.611,0-0.96,0c-0.35,0-0.785,0-1.31,0h-8.643
				c-2.152,0-3.9,0-5.238,0c-0.99,0-1.833,0-2.531,0c-1.048,0-1.571-0.203-1.571-0.611c0-0.305,0.174-0.482,0.523-0.534
				c0.351-0.051,1.601-0.077,3.754-0.077c1.629,0,2.445-0.265,2.445-0.795c0-0.412-0.294-1.118-0.873-2.12
				c-1.396-2.531-3.552-6.329-6.46-11.393l-0.525-0.882c-5.994,8.509-8.991,13.228-8.991,14.154c0,0.521,1.628,0.81,4.889,0.868
				c0.582,0,0.874,0.203,0.874,0.608c0,0.521-0.496,0.782-1.485,0.782c-0.349,0-0.99,0-1.92,0c-0.932,0-2.126,0-3.58,0h-0.786
				c-0.816,0-1.572,0-2.27,0h-1.745c-0.758,0-1.222,0-1.396,0c-0.641,0-0.96-0.231-0.96-0.698c0-0.465,0.64-0.727,1.92-0.785
				c1.979-0.117,3.521-0.815,4.627-2.097l7.246-10.912c0.405-0.582,1.222-1.775,2.443-3.58c-0.99-1.687-3.492-6.373-7.507-14.055
				c-1.165-2.271-2.052-3.608-2.663-4.016c-0.61-0.407-2.081-0.64-4.409-0.698c-0.873,0-1.309-0.203-1.309-0.611
				c0-0.465,0.407-0.699,1.222-0.699h9.865c0.989,0,2.328,0,4.016,0c1.92,0,3.288,0,4.103,0c1.514,0,2.271,0.233,2.271,0.699
				c0,0.466-1.02,0.728-3.055,0.786c-2.562,0.059-3.842,0.379-3.842,0.96c0,0.408,0.553,1.602,1.658,3.58
				c1.862,3.492,3.259,6.141,4.19,7.944l0.349,0.699c1.746-2.386,3.506-5.021,5.283-7.901c1.774-2.881,2.662-4.553,2.662-5.02
				c0-0.349-0.699-0.494-2.096-0.436H61.08c-0.408,0-0.611-0.219-0.611-0.654c0-0.437,0.38-0.655,1.136-0.655
				c-0.349,0,0.64,0.058,2.97,0.174c0.58,0.06,1.162,0.088,1.745,0.088c3.606-0.175,5.179-0.262,4.714-0.262h0.961
				c0.407,0,0.698,0,0.873,0c0.698,0,1.047,0.174,1.047,0.522c0,0.29-0.161,0.508-0.479,0.653c-0.321,0.146-1.122,0.218-2.401,0.218
				c-1.688,0-2.794,0.233-3.317,0.697c-0.523,0.464-1.077,1.189-1.659,2.177l-1.659,2.787c-0.756,1.278-1.862,2.991-3.317,5.141
				l-2.879,4.266l1.482,2.527c0.466,0.812,1.659,2.961,3.579,6.444c0.932,1.626,2.532,4.384,4.802,8.274
				c0.756,1.278,1.485,2.107,2.183,2.483c0.7,0.378,1.877,0.566,3.536,0.566C75.443,73.196,76.271,73.429,76.271,73.893z"/>
		</g>
		<g>
			<line fill="none" stroke="#2599BF" stroke-miterlimit="10" x1="32" y1="36.5" x2="78" y2="36.5"/>
			<line fill="none" stroke="#2599BF" stroke-miterlimit="10" x1="32" y1="75.5" x2="78" y2="75.5"/>
			<rect x="32.5" y="13.5" fill="none" stroke="#2599BF" stroke-miterlimit="10" width="46" height="84"/>
		</g>
	</g>
</g>
</svg>
