<?xml version="1.0" encoding="utf-8"?>
<!-- Generator: Adobe Illustrator 16.0.0, SVG Export Plug-In . SVG Version: 6.00 Build 0)  -->
<!DOCTYPE svg PUBLIC "-//W3C//DTD SVG 1.1//EN" "http://www.w3.org/Graphics/SVG/1.1/DTD/svg11.dtd">
<svg version="1.1" xmlns="http://www.w3.org/2000/svg" xmlns:xlink="http://www.w3.org/1999/xlink" x="0px" y="0px" width="110px"
	 height="110px" viewBox="0 0 110 110" enable-background="new 0 0 110 110" xml:space="preserve">
<g id="Layer_1" display="none">
</g>
<g id="Layer_3" display="none">
</g>
<g id="Layer_2">
	<g>
		<circle fill="#216A8E" cx="54.922" cy="54.077" r="50.495"/>
		<g>
			<rect x="23" y="30" fill="#FFFFFF" width="64" height="42"/>
			<g>
				<path fill="#216A8E" d="M33.506,35.485l8.139,20.396l8.254-20.396h4.86l-13.21,31.644L28.645,35.485H33.506z"/>
				<path fill="#216A8E" d="M73.25,57.768h-12.6l-3.279,7.149h-4.784L67.15,33.636l14.049,31.281h-4.861L73.25,57.768z
					 M71.439,53.594l-4.365-10.008l-4.575,10.008H71.439z"/>
			</g>
			<polygon fill="#FFFFFF" points="82.957,76.765 79,74.654 79,77 30,77 30,74.654 26.499,76.765 22.919,78.875 26.457,80.986 
				30,83.097 30,80 79,80 79,83.097 82.947,80.986 86.629,78.875 			"/>
		</g>
	</g>
</g>
</svg>
