<?xml version="1.0" encoding="utf-8"?>
<!-- Generator: Adobe Illustrator 16.0.0, SVG Export Plug-In . SVG Version: 6.00 Build 0)  -->
<!DOCTYPE svg PUBLIC "-//W3C//DTD SVG 1.1//EN" "http://www.w3.org/Graphics/SVG/1.1/DTD/svg11.dtd">
<svg version="1.1" xmlns="http://www.w3.org/2000/svg" xmlns:xlink="http://www.w3.org/1999/xlink" x="0px" y="0px" width="500px"
	 height="477.87px" viewBox="0 0 500 477.87" enable-background="new 0 0 500 477.87" xml:space="preserve">
<g id="Layer_2" display="none">
</g>
<g id="Layer_1">
	<g>
		<g>
			<g>
				<g>
					<path d="M87.841,306.489c0.083-2.579,0.055-4.312-0.561-7.244c-1.891-8.797-5.696-26.505-9.966-46.374
						c-6.787-31.558-13.942-64.831-20.89-97.139c-3.474-16.154-6.896-32.067-10.195-47.404c-1.649-7.668-3.268-15.193-4.846-22.531
						c-0.684-3.18-1.359-6.319-2.024-9.414c0.004,0.01-0.007-0.001-0.01-0.002c0.746,0.423,1.489,0.844,2.229,1.264
						c1.565,0.887,3.118,1.768,4.658,2.641c85.771,48.627,158.759,90.007,210.293,119.224c25.646,14.54,45.953,26.053,59.844,33.928
						c-0.843,15.445-1.293,23.705-1.295,23.73c-0.031,0.591-0.031,0.592-0.031,0.592s-0.342,6.257-1.486,27.229
						c-0.572,10.486-1.346,24.65-2.377,43.55c-0.516,9.45-1.096,20.084-1.748,32.034c-0.152,2.809-0.311,5.695-0.473,8.66l0.001,0
						h0.001c0,0,0.034-0.004-0.113,0.015c-0.412,0.058-0.82,0.125-1.229,0.204c-0.815,0.162-1.632,0.345-2.44,0.593
						c-1.617,0.479-3.225,1.129-4.745,2.031c-1.521,0.889-2.948,2.09-4.032,3.614c-1.081,1.509-1.818,3.349-2.085,5.185
						c-0.291,1.853-0.241,3.796,0.2,5.658c0.436,1.863,1.181,3.656,2.162,5.31c0.859,1.47,1.939,2.968,3.484,4.663
						c0.773,0.847,1.668,1.736,2.73,2.673c0.528,0.47,1.104,0.948,1.727,1.437c0.311,0.246,0.636,0.491,0.975,0.739
						c0.172,0.123,0.346,0.247,0.522,0.373l0.135,0.093c0.017,0.011,0.001,0,0.006,0.004l-0.001,0
						c-0.103,6.78-0.251,16.591-0.482,31.916c-0.107,7.027-0.234,15.398-0.414,27.273c-0.045,2.969-0.093,6.157-0.145,9.597
						c-0.006,0.354-0.012,0.712-0.017,1.073v-0.005c-0.001-0.003,0.002,0,0.003,0.001l0.002,0.001
						c-0.008-0.006,0.02,0.015-0.017-0.013l-0.273-0.212c-1.461-1.136-2.976-2.314-4.546-3.536
						c-6.283-4.887-13.471-10.478-21.776-16.938c-12.032-9.358-26.111-20.31-41.704-32.438c-3.898-3.032-7.893-6.138-11.971-9.311
						c-2.04-1.586-4.102-3.19-6.184-4.809l-0.167-0.13l0.001,0.001l0.002,0.002l-0.001-0.817l-0.002-1.993
						c-0.001-1.332-0.002-2.669-0.003-4.013c-0.001-1.344-0.002-2.694-0.003-4.051l-0.002-2.039l-0.001-1.214v-0.514
						c-0.029-0.157-0.242-0.224-0.354-0.34l-0.611-0.47c-2.169-1.668-4.356-3.351-6.562-5.047
						c-4.409-3.392-8.889-6.838-13.43-10.331c-4.566-3.513-9.186-7.066-12.171-9.363c-5.452-4.194-10.951-8.424-16.478-12.676
						c-2.764-2.126-5.535-4.257-8.311-6.392l-4.166-3.205l-2.574-1.979l-2.094-1.611c-0.127-0.147-0.071,0.075-0.084,0.16v0.33
						v0.661v1.321c0,3.751,0,7.506,0,11.262v2.433c0.001-0.005-0.002-0.018,0.005-0.009l-3.28-2.523
						c-5.568-4.283-11.129-8.561-16.663-12.818c-12.093-9.302-23.96-18.431-34.974-26.902c-1.158-0.888-2.138-1.638-2.672-2.048
						C91.758,308.291,90.205,307.521,87.841,306.489c1.604,2.02,2.746,3.324,5.112,5.163c0.533,0.412,1.51,1.166,2.665,2.058
						c11.013,8.473,22.88,17.602,34.972,26.904c5.535,4.258,11.096,8.535,16.664,12.819l5.074,3.903l1.049,0.807l0.262,0.202
						c0.061,0.069,0.057,0.003,0.053-0.058v-0.166v-0.661v-2.646v-2.839c0-3.274,0-6.547,0-9.817
						c10.264,7.898,20.489,15.767,30.544,23.504c2.985,2.296,7.604,5.85,12.171,9.362c4.541,3.493,9.021,6.939,13.431,10.331
						c2.204,1.696,4.392,3.378,6.561,5.047l0.203,0.156l-0.001-0.001l-0.002-0.002l0.001,0.831l0.001,2.039
						c0.002,1.356,0.003,2.706,0.004,4.05s0.002,2.682,0.004,4.014l0.001,1.992l0.001,1.168v0.497
						c0.006,0.039-0.012,0.089,0.013,0.118l0.099,0.076l0.195,0.153l0.615,0.479c2.082,1.619,4.144,3.222,6.184,4.809
						c4.079,3.173,8.072,6.278,11.971,9.311c15.594,12.128,29.674,23.078,41.706,32.436c8.306,6.459,15.493,12.05,21.777,16.937
						c1.571,1.222,3.085,2.399,4.546,3.536c0.634,0.493,1.262,0.981,1.885,1.465l1.072,0.835l0.268,0.208l0.133,0.104
						c0.03,0.035,0.031,0.008,0.029-0.026l0.001-0.084l0.011-0.672c0.021-1.422,0.042-2.818,0.062-4.189
						c0.053-3.44,0.101-6.628,0.145-9.597c0.18-11.875,0.307-20.247,0.412-27.273c0.117-7.801,0.215-14.198,0.295-19.508
						c0.039-2.655,0.076-5.038,0.108-7.189c0.017-1.075,0.031-2.092,0.046-3.057c0.008-0.482,0.015-0.951,0.021-1.407
						c0.003-0.228,0.007-0.453,0.01-0.675l0.009-0.58l0.005-0.327l0.003-0.163l0.001-0.081c-0.018-0.017-0.045-0.03-0.066-0.045
						c-0.312-0.207-0.622-0.412-0.926-0.613c-0.166-0.118-0.328-0.234-0.488-0.349c-0.316-0.239-0.623-0.472-0.922-0.698
						c-0.591-0.463-1.137-0.917-1.639-1.364c-1.008-0.889-1.855-1.73-2.582-2.527c-1.453-1.595-2.454-2.986-3.24-4.331
						c-1.802-3.018-2.665-6.45-2.119-9.671c0.242-1.633,0.847-3.083,1.739-4.35c0.896-1.263,2.104-2.295,3.452-3.082
						c1.344-0.797,2.805-1.392,4.295-1.833c0.742-0.23,1.5-0.399,2.254-0.549c0.376-0.073,0.756-0.135,1.13-0.188l0.479-0.059
						l0.602-0.058l0.602-0.051c0.051-0.158,0.033-0.384,0.053-0.573c0.183-3.343,0.359-6.596,0.532-9.762
						c0.652-11.95,1.231-22.584,1.747-32.034c1.031-18.9,1.804-33.064,2.376-43.55c1.144-20.972,1.485-27.229,1.485-27.229
						s0,0,0.031-0.591c0.002-0.013,0.117-2.135,0.344-6.29c0.113-2.077,0.254-4.655,0.422-7.715c0.083-1.53,0.173-3.181,0.27-4.95
						c0.049-0.884,0.098-1.798,0.149-2.741c0.026-0.472,0.052-0.95,0.079-1.437c0.016-0.288,0.031-0.578,0.047-0.871l0.041-0.743
						l0.01-0.187c-0.045-0.036-0.105-0.063-0.158-0.095l-0.326-0.185c-14.021-7.95-34.521-19.573-60.409-34.251
						C205.96,168.591,132.973,127.209,47.204,78.579c-1.54-0.874-3.093-1.754-4.658-2.642c-0.825-0.467-1.653-0.937-2.484-1.408
						l-2.377-1.348c-0.381-0.203-0.831-0.5-1.156-0.627l0.289,1.342c0.871,4.047,1.753,8.154,2.648,12.312
						c1.578,7.338,3.196,14.863,4.845,22.531c3.298,15.337,6.72,31.25,10.194,47.405c6.948,32.309,14.104,65.582,20.891,97.139
						c4.275,19.867,8.086,37.574,9.979,46.371C86.019,302.581,86.705,304.172,87.841,306.489z"/>
				</g>
			</g>
		</g>
		<g>
			<g>
				<g>
					<path d="M425.19,260.831c-2.245,1.27-3.712,2.195-5.896,4.245c-9.009,8.538-54.124,51.299-54.124,51.299
						s-42.279,40.073-50.722,48.075c-2.165,2.072-3.167,3.486-4.555,5.661c2.245-1.27,3.711-2.195,5.896-4.245
						c8.442-8.001,50.722-48.075,50.722-48.075s45.115-42.761,54.124-51.299C422.8,264.419,423.802,263.005,425.19,260.831z"/>
				</g>
			</g>
		</g>
		<g>
			<g>
				<g>
					<path d="M431.824,281.479c-2.219,1.317-3.664,2.272-5.806,4.369c-9.931,9.818-59.665,58.991-59.665,58.991
						s-46.486,45.96-55.768,55.137c-2.121,2.118-3.092,3.552-4.435,5.755c2.218-1.317,3.663-2.272,5.806-4.369
						c9.281-9.177,55.768-55.137,55.768-55.137s49.734-49.173,59.665-58.991C429.51,285.117,430.482,283.682,431.824,281.479z"/>
				</g>
			</g>
		</g>
		<g>
			<g>
				<g>
					<path d="M462.059,119.25c-1.062,2.351-1.698,3.963-2.25,6.908c-1.455,7.969-4.941,27.08-8.506,46.613
						c-3.089,16.942-6.211,34.068-8.942,49.052c-1.365,7.492-2.634,14.449-3.751,20.58c-0.559,3.066-1.079,5.925-1.557,8.541
						c-0.059,0.327-0.118,0.65-0.176,0.97l-0.039,0.216v-0.001l0.001-0.001c-0.503,0.325-0.993,0.643-1.47,0.951
						c-1.01,0.653-1.963,1.27-2.855,1.848c-2.448,1.584-4.81,3.112-6.895,4.462c-0.348,0.225-0.689,0.446-1.024,0.663l-0.376,0.244
						c-0.012,0.142-0.004,0.295-0.006,0.44c0,0.253,0,0.503,0,0.75c0,0.577,0,1.129,0,1.653c0,1.049,0,1.988,0,2.789
						c0,3.201,0,4.184,0,1.141c0.017,1.227-0.038,2.346,0.046,3.602c0.042,1.223,0.278,2.415,0.579,3.548
						c0.668,2.255,1.848,4.237,3.299,5.7c0.717,0.741,1.484,1.372,2.289,1.887l0.311,0.195c0.006,0.003,0.002,0,0.003,0.001
						c0.031-0.175-0.073,0.417-0.137,0.771c-0.274,1.546-0.517,2.909-0.721,4.058c-0.815,4.596-1.024,5.773-0.285,1.61
						c-5.179,29.173-5.854,32.977-5.854,32.977s-0.379,2.138-1.667,9.389c-0.644,3.625-1.515,8.528-2.679,15.082
						c-0.581,3.276-1.236,6.965-1.973,11.113c-0.168,0.943-0.34,1.913-0.517,2.909c-0.71,0.719-1.438,1.458-2.187,2.217
						c-1.646,1.67-3.379,3.427-5.201,5.276c-13.705,13.904-82.529,83.721-99.008,100.437c-2.094,2.145-3.047,3.592-4.36,5.812
						c2.201-1.346,3.634-2.319,5.749-4.443c16.479-16.716,85.305-86.531,99.01-100.435c1.823-1.849,3.556-3.606,5.202-5.276
						c0.895-0.914,1.767-1.803,2.615-2.669c0.212-1.194,0.418-2.356,0.618-3.487c0.736-4.148,1.392-7.837,1.974-11.113
						c1.163-6.553,2.033-11.457,2.677-15.082c1.287-7.25,1.667-9.389,1.667-9.389s0.675-3.804,5.855-32.977
						c-0.739,4.163-0.53,2.986,0.286-1.61c0.204-1.149,0.446-2.512,0.721-4.058c0.094-0.523,0.189-1.062,0.287-1.616
						c0.018-0.195,0.115-0.433,0.068-0.597l-0.586-0.284l-0.549-0.292l-0.268-0.166c-0.668-0.428-1.329-0.97-1.94-1.603
						c-1.243-1.252-2.243-2.937-2.824-4.886c-0.593-1.965-0.559-4.139-0.546-6.604c0,3.042,0,2.06,0-1.141c0-0.8,0-1.739,0-2.789
						c0-0.524,0-1.077,0-1.653c0-0.213,0-0.09,0-0.124v0.001c-0.114,0.074,0.279-0.181,0.514-0.332
						c2.085-1.35,4.446-2.877,6.895-4.461c0.894-0.578,1.847-1.195,2.855-1.848c0.532-0.344,1.079-0.698,1.64-1.061
						c0.239-0.19,0.634-0.28,0.597-0.659l0.135-0.737c0.059-0.319,0.117-0.643,0.177-0.97c0.478-2.616,0.999-5.475,1.558-8.541
						c1.118-6.131,2.387-13.088,3.754-20.58c2.732-14.984,5.854-32.109,8.943-49.052c3.559-19.534,7.041-38.646,8.492-46.616
						C462.249,123.558,462.223,121.825,462.059,119.25z"/>
				</g>
			</g>
		</g>
		<g>
			<g>
				<g>
					<path d="M208.851,13.067c-0.623,0.577-0.96,0.968-0.976,1.658c0,0.75,0,4.492,0,4.492s0,3.741,0,4.492
						c0.016,0.69,0.353,1.082,0.976,1.658c0.623-0.577,0.96-0.968,0.976-1.658c0-0.75,0-4.492,0-4.492s0-3.741,0-4.492
						C209.811,14.035,209.474,13.644,208.851,13.067z"/>
				</g>
			</g>
		</g>
		<g>
			<g>
				<g>
					<path d="M408.229,104.445c-0.623,0.577-0.96,0.968-0.976,1.658c0,0.75,0,4.492,0,4.492s0,3.741,0,4.492
						c0.016,0.69,0.353,1.082,0.976,1.658c0.623-0.577,0.96-0.968,0.976-1.658c0-0.75,0-4.492,0-4.492s0-3.741,0-4.492
						C409.189,105.414,408.853,105.022,408.229,104.445z"/>
				</g>
			</g>
		</g>
		<g>
			<g>
				<g>
					<path d="M212.028,127.535c-2.511-0.652-4.202-1.008-7.188-1.058c-1.395-0.017-4.186-0.052-7.587-0.094
						c-3.288-0.207-6.87-0.431-10.559-0.663c-0.923-0.059-1.851-0.118-2.783-0.178c-0.93-0.083-1.857-0.218-2.788-0.325
						c-1.861-0.228-3.726-0.455-5.568-0.68c-3.704-0.349-7.246-1.14-10.544-1.73c-3.316-0.525-6.269-1.386-8.798-2.031
						c-1.263-0.328-2.414-0.626-3.43-0.889c-1-0.315-1.854-0.626-2.562-0.861c-1.411-0.482-2.207-0.753-2.207-0.753
						s-0.795-0.272-2.207-0.754c-0.718-0.213-1.541-0.593-2.5-1.01c-0.958-0.417-2.044-0.89-3.236-1.408
						c-0.59-0.271-1.231-0.504-1.851-0.836c-0.618-0.335-1.259-0.682-1.919-1.041c-0.661-0.358-1.342-0.727-2.04-1.105
						c-0.35-0.189-0.703-0.38-1.061-0.574c-0.338-0.223-0.681-0.449-1.026-0.677c-2.782-1.794-5.727-3.876-8.286-6.469
						c-0.643-0.643-1.329-1.257-1.885-1.981c-0.564-0.714-1.225-1.368-1.714-2.132c-0.509-0.751-1.063-1.479-1.468-2.272
						c-0.222-0.389-0.449-0.775-0.612-1.171c-0.084-0.192-0.194-0.404-0.257-0.578c-0.044-0.117-0.036-0.092-0.038-0.098
						l-0.013-0.281c-0.167-3.679-0.329-7.252-0.479-10.532c-0.092-1.978-0.168-3.601-0.207-4.411c-0.15-2.993-0.564-4.676-1.3-7.148
						c-0.509,2.529-0.769,4.242-0.647,7.237c0.035,0.811,0.105,2.434,0.193,4.412c0.148,3.279,0.311,6.853,0.477,10.532l0.02,0.414
						c-0.022,0.232,0.139,0.461,0.154,0.566c0.098,0.263,0.205,0.465,0.309,0.701c0.195,0.467,0.442,0.889,0.686,1.316
						c0.453,0.879,1.041,1.656,1.59,2.464c0.533,0.824,1.221,1.511,1.823,2.27c0.596,0.77,1.311,1.414,1.987,2.089
						c2.693,2.724,5.745,4.878,8.621,6.732c0.358,0.235,0.713,0.468,1.063,0.699c0.368,0.199,0.731,0.396,1.091,0.591
						c0.718,0.389,1.418,0.769,2.098,1.137c0.68,0.368,1.338,0.724,1.975,1.068c0.637,0.341,1.291,0.58,1.895,0.856
						c1.221,0.53,2.332,1.013,3.313,1.439s1.825,0.813,2.555,1.031c1.438,0.491,2.249,0.768,2.249,0.768s0.811,0.277,2.248,0.769
						c0.721,0.241,1.592,0.558,2.609,0.878c1.031,0.268,2.199,0.572,3.481,0.905c2.567,0.656,5.568,1.531,8.921,2.064
						c3.338,0.6,6.929,1.4,10.665,1.754c1.861,0.228,3.744,0.458,5.624,0.688c0.94,0.108,1.878,0.245,2.816,0.329
						c0.939,0.061,1.875,0.121,2.805,0.18c3.719,0.233,7.33,0.459,10.644,0.667c3.425,0.036,6.234,0.066,7.638,0.081
						C207.824,128.447,209.532,128.129,212.028,127.535z"/>
				</g>
			</g>
		</g>
		<g>
			<g>
				<g>
					<path d="M408.229,119.25c-2.37,1.019-3.931,1.766-6.337,3.546c-1.944,1.429-5.839,4.291-10.586,7.779
						c-5.913,4.303-12.404,8.929-19.162,13.578c-6.752,4.658-13.765,9.352-20.768,13.69c-7.002,4.314-13.951,8.452-20.705,11.363
						c-1.712,0.639-3.338,1.396-5.039,1.838c-1.68,0.497-3.348,0.9-4.978,1.245c-3.261,0.687-6.372,1.134-9.237,1.473
						c-5.742,0.625-10.504,0.781-13.814,0.828c-1.656,0.027-2.951,0.021-3.832,0.005c-0.881-0.009-1.348-0.014-1.348-0.014
						c0,0-1.867-0.025-5.177-0.182c-3.309-0.161-8.064-0.485-13.8-1.253c-5.73-0.762-12.455-1.959-19.57-3.996
						c-3.553-1.02-7.209-2.241-10.824-3.793c-3.613-1.546-7.208-3.4-10.508-5.734c-3.263-2.374-6.518-5.068-9.658-7.741
						c-3.115-2.707-6.225-5.51-8.654-8.615c-0.593-0.766-1.124-1.609-1.373-2.335c-0.074-0.189-0.076-0.325-0.089-0.417
						c0.007-0.006,0.008-0.012,0.004-0.019c-0.11-0.044-0.197-0.051-0.271-0.088c-0.073-0.046-0.164-0.089-0.239-0.174
						c-0.098-0.143,0.73,0.839,0.314,0.479c-0.172,0.235,0.866-1.598,0.432-0.85v-0.095l-0.012-1.517
						c-0.017-2.017-0.033-4.013-0.049-5.981c-0.031-3.861-0.061-7.612-0.09-11.203c-0.02-1.98-0.035-3.604-0.043-4.416
						c-0.039-2.997-0.389-4.693-1.032-7.192c-0.603,2.508-0.927,4.211-0.917,7.208c0.005,0.812,0.016,2.436,0.028,4.416
						c0.028,3.59,0.059,7.342,0.089,11.203c0.016,1.968,0.032,3.964,0.049,5.981l0.012,1.517l0.001,0.095
						c-0.43,0.781,0.606-1.021,0.4-0.771c-0.079,0.056-0.136,0.109-0.157,0.135c-0.143,0.144-0.244,0.299-0.297,0.427
						c-0.151,0.299-0.148,0.505-0.184,0.752c-0.001,0.415,0.064,0.787,0.169,1.077c0.085,0.331,0.22,0.582,0.345,0.85
						c0.12,0.277,0.266,0.513,0.413,0.748c0.28,0.49,0.604,0.919,0.926,1.352c2.641,3.368,5.774,6.162,8.942,8.922
						c3.212,2.73,6.396,5.373,9.812,7.859c3.451,2.438,7.159,4.345,10.866,5.932c3.709,1.591,7.438,2.836,11.055,3.873
						c7.241,2.071,14.051,3.281,19.853,4.051c5.806,0.775,10.614,1.103,13.961,1.264c3.349,0.158,5.237,0.184,5.237,0.183
						c0,0,0.473,0.005,1.363,0.015c0.892,0.016,2.202,0.023,3.878-0.004c3.352-0.047,8.174-0.203,14.008-0.837
						c2.914-0.344,6.082-0.798,9.424-1.501c1.671-0.353,3.386-0.766,5.125-1.28c1.757-0.458,3.463-1.242,5.245-1.911
						c6.962-3.002,13.929-7.161,20.982-11.502c7.043-4.362,14.076-9.07,20.845-13.739c6.775-4.661,13.28-9.295,19.203-13.607
						c3.435-2.523,6.56-4.82,9.178-6.745c0.606-0.452,1.095-0.816,1.42-1.06C405.451,122.551,406.613,121.261,408.229,119.25z"/>
				</g>
			</g>
		</g>
		<g>
			<g>
				<g>
					<path d="M353.306,127.562c-2.023-1.601-3.433-2.609-6.155-3.86c-8.526-3.864-51.226-23.214-51.226-23.214
						s-2.991-1.356-7.628-3.459c-1.16-0.525-2.422-1.098-3.766-1.707c-0.672-0.305-1.364-0.619-2.074-0.941
						c-0.355-0.161-0.715-0.324-1.078-0.489l-0.549-0.249l-0.406-0.184l-0.279-0.125l-0.139-0.062
						c-0.049,0.007-0.098,0.028-0.146,0.042c-0.487,0.158-0.979,0.317-1.477,0.478c-0.397,0.135-0.799,0.272-1.203,0.41
						c-0.803,0.287-1.618,0.58-2.445,0.875c-1.646,0.609-3.32,1.263-5.002,1.96c-3.359,1.401-6.748,2.956-9.946,4.68
						c-1.603,0.854-3.155,1.753-4.632,2.69c-0.743,0.458-1.455,0.948-2.158,1.423c-0.345,0.248-0.688,0.493-1.025,0.736
						l-0.504,0.365l-0.426,0.332c-1.616,1.22-2.823,2.391-3.426,2.971c-2.14,2.226-3.001,3.98-3.479,6.512
						c0.813-1.013,1.505-1.772,2.282-2.535c0.738-0.784,1.562-1.56,2.569-2.592c0.571-0.537,1.703-1.633,3.252-2.8l0.406-0.317
						l0.484-0.351c0.325-0.233,0.654-0.47,0.986-0.708c0.679-0.458,1.364-0.93,2.087-1.375c1.431-0.908,2.944-1.784,4.511-2.62
						c3.127-1.687,6.461-3.217,9.77-4.598c1.656-0.688,3.309-1.333,4.93-1.934c0.814-0.292,1.618-0.58,2.408-0.863
						c0.697-0.234,1.383-0.464,2.055-0.69c2.821,1.278,5.412,2.452,7.613,3.448c4.637,2.1,7.629,3.455,7.629,3.455
						s42.7,19.35,51.227,23.214C349.081,126.701,350.768,127.095,353.306,127.562z"/>
				</g>
			</g>
		</g>
		<g>
			<g>
				<g>
					<path d="M148.517,71.699c2.294-1.239,3.643-2.224,5.99-4.019c0.312-0.251,0.778-0.627,1.357-1.094
						c0.286-0.238,0.633-0.455,0.986-0.711c0.499-0.352,1.015-0.714,1.544-1.087c0.555-0.388,1.113-0.806,1.73-1.162
						c4.797-3.059,10.905-6.024,17.107-7.748c3.085-0.894,6.171-1.533,9.034-1.889c0.357-0.038,0.711-0.075,1.061-0.111
						c0.29-0.023,0.577-0.045,0.86-0.068c0.546,0.247,1.078,0.487,1.594,0.721c1.215,0.549,2.354,1.066,3.401,1.54
						c4.188,1.897,6.892,3.121,6.892,3.121s36.746,16.653,44.084,19.978c2.735,1.224,4.423,1.618,6.96,2.084
						c-2.022-1.601-3.433-2.609-6.155-3.86c-7.338-3.325-44.084-19.978-44.084-19.978s-2.701-1.226-6.889-3.125
						c-1.048-0.475-2.188-0.992-3.4-1.542c-0.305-0.137-0.612-0.277-0.924-0.419l-0.473-0.214l-0.279-0.126
						c-0.163-0.051-0.311-0.198-0.492-0.15l-0.717,0.043l-0.555,0.045c-0.367,0.039-0.739,0.078-1.115,0.117
						c-2.987,0.37-6.164,1.028-9.347,1.948c-6.39,1.775-12.681,4.826-17.622,7.98c-0.637,0.368-1.211,0.797-1.783,1.197
						c-0.546,0.385-1.077,0.759-1.591,1.121c-0.363,0.265-0.72,0.49-1.015,0.736c-0.594,0.483-1.073,0.874-1.393,1.133
						C150.887,68.033,149.932,69.576,148.517,71.699z"/>
				</g>
			</g>
		</g>
		<g>
			<g>
				<g>
					<path d="M187.302,35.082c-0.571,0.869-0.874,1.455-0.828,2.451c0.065,1.08,0.394,6.477,0.394,6.477s0.326,5.397,0.393,6.478
						c0.075,0.995,0.445,1.539,1.118,2.333c0.571-0.869,0.874-1.454,0.828-2.451c-0.065-1.08-0.394-6.477-0.394-6.477
						s-0.326-5.397-0.393-6.478C188.345,36.42,187.974,35.876,187.302,35.082z"/>
				</g>
			</g>
		</g>
		<g>
			<g>
				<g>
					<path d="M282.743,77.018c-0.623,0.871-0.96,1.461-0.976,2.503c0,1.13,0,6.78,0,6.78s0,5.65,0,6.78
						c0.016,1.042,0.353,1.633,0.976,2.503c0.623-0.871,0.96-1.461,0.976-2.503c0-1.13,0-6.78,0-6.78s0-5.65,0-6.78
						C283.703,78.479,283.366,77.888,282.743,77.018z"/>
				</g>
			</g>
		</g>
		<g>
			<g>
				<path fill="#217E9D" d="M377.997,100.079c0,0-171.077-73.74-174.026-77.427s4.88-9.585,4.88-9.585s-93.368,36.5-91.894,61.388
					c1.475,24.888,45.454,33.738,60.703,34.475c15.249,0.736,35.159-3.688,35.159-3.688s-2.582,43.449,59.393,53.579
					c14.438,2.36,28.982,5.304,45.168-0.162c49.625-16.758,90.85-53.417,90.85-53.417
					C390.753,106.477,377.997,100.079,377.997,100.079z M223.315,91.521c-44.613,12.363-79.553-16.663-79.015-29.788
					s43.001-26.651,43.001-26.651l75.463,33.157C262.765,68.239,267.931,79.158,223.315,91.521z M323.294,141.511
					c-29.025,3.225-82.777-13.976-83.314-34.401c-0.538-20.426,42.764-30.092,42.764-30.092l81.939,36.004
					C364.683,113.022,352.32,138.286,323.294,141.511z"/>
			</g>
			<g>
				<g>
					<g>
						<path d="M323.294,141.511c-2.559-0.394-4.229-0.593-7.191-0.599c-0.401-0.001-1.003-0.002-1.749-0.004
							c-0.373-0.012-0.783-0.025-1.222-0.039c-0.359-0.011-0.722-0.022-1.086-0.034c-0.48-0.009-0.964-0.04-1.451-0.073
							c-0.974-0.07-1.964-0.105-2.965-0.207c-2.004-0.167-4.059-0.404-6.156-0.679c-8.384-1.151-17.431-3.218-26.425-6.278
							c-4.492-1.537-8.977-3.316-13.29-5.444c-4.305-2.13-8.479-4.567-12.165-7.502c-1.823-1.486-3.511-3.097-4.971-4.853
							c-1.404-1.787-2.553-3.735-3.164-5.801c-0.617-2.049-0.639-4.234-0.148-6.287c0.491-2.049,1.46-3.942,2.664-5.625
							c1.209-1.685,2.626-3.195,4.165-4.504c1.525-1.324,3.119-2.508,4.744-3.549c3.231-2.112,6.501-3.757,9.559-5.133
							c6.131-2.739,11.431-4.417,15.123-5.503c1.851-0.539,3.307-0.919,4.297-1.166c0.345-0.083,0.608-0.147,0.786-0.19
							c0.064,0.028,0.098,0.043,0.098,0.043s32.043,14.083,67.285,29.572c4.399,1.933,8.848,3.888,13.29,5.84l-0.005-0.002
							c-0.003,0,0.001-0.004-0.001,0l-0.038,0.068l-0.717,1.219c-0.629,1.009-1.277,2.005-1.972,2.971
							c-0.667,0.984-1.429,1.899-2.138,2.846c-0.774,0.895-1.508,1.823-2.309,2.685c-3.18,3.464-6.675,6.565-10.446,9.031
							c-0.917,0.653-1.915,1.165-2.856,1.749c-0.479,0.278-0.944,0.576-1.429,0.834c-0.495,0.238-0.987,0.476-1.478,0.712
							c-0.99,0.453-1.933,0.989-2.934,1.361c-0.92,0.344-1.831,0.684-2.732,1.021c-0.456,0.164-0.885,0.347-1.3,0.473
							c-0.42,0.112-0.812,0.217-1.17,0.313c-0.716,0.193-1.292,0.349-1.677,0.452c-0.71,0.187-1.333,0.401-1.918,0.571
							c-0.593,0.139-1.136,0.291-1.663,0.459C325.485,140.596,324.495,141,323.294,141.511c1.271,0.109,2.354,0.177,3.496,0.158
							c0.57-0.01,1.156-0.042,1.787-0.1c0.625-0.089,1.284-0.263,2.024-0.45c0.399-0.105,1-0.264,1.744-0.461
							c0.371-0.099,0.779-0.208,1.216-0.324c0.433-0.13,0.878-0.318,1.353-0.488c0.937-0.35,1.883-0.704,2.84-1.062
							c1.04-0.389,2.021-0.942,3.049-1.414c0.51-0.246,1.021-0.493,1.535-0.741c0.502-0.269,0.986-0.577,1.484-0.865
							c0.978-0.604,2.012-1.14,2.964-1.815c3.911-2.559,7.527-5.766,10.811-9.346c0.828-0.89,1.586-1.848,2.386-2.774
							c0.734-0.978,1.519-1.923,2.209-2.942c0.718-0.999,1.392-2.033,2.046-3.083l0.474-0.802l0.236-0.401l0.387-0.726l0.388-0.729
							l0.206-0.4c0.023-0.063,0.092-0.142,0.079-0.193l-0.206-0.093l-1.65-0.744c-4.455-1.958-8.918-3.918-13.329-5.856
							c-35.245-15.483-67.29-29.561-67.29-29.561s-0.217-0.095-0.639-0.28c-0.123-0.043-0.273,0.042-0.432,0.063
							c-0.121,0.028-0.253,0.059-0.396,0.092c-0.193,0.047-0.418,0.102-0.672,0.164c-1.014,0.252-2.494,0.638-4.372,1.185
							c-3.751,1.104-9.12,2.8-15.38,5.595c-3.122,1.405-6.472,3.086-9.825,5.276c-1.684,1.079-3.352,2.314-4.963,3.713
							c-1.623,1.382-3.148,2.997-4.473,4.842c-1.318,1.843-2.415,3.966-2.977,6.314c-0.562,2.332-0.545,4.89,0.174,7.283
							c0.706,2.389,1.997,4.549,3.52,6.483c1.572,1.896,3.359,3.597,5.267,5.151c3.849,3.065,8.133,5.559,12.53,7.736
							c4.405,2.173,8.962,3.979,13.521,5.541c9.125,3.104,18.281,5.196,26.794,6.365c2.13,0.279,4.218,0.52,6.257,0.689
							c1.019,0.102,2.029,0.139,3.021,0.21c0.497,0.033,0.989,0.065,1.479,0.074c0.373,0.012,0.743,0.023,1.109,0.034
							c0.448,0.013,0.866,0.026,1.248,0.037c0.764-0.002,1.38-0.004,1.79-0.005C319.144,142.838,320.867,142.356,323.294,141.511z"
							/>
					</g>
				</g>
				<g>
					<g>
						<path d="M223.315,91.521c-2.595,0.001-4.278,0.13-7.195,0.646c-0.396,0.064-0.98,0.216-1.721,0.309
							c-0.369,0.054-0.774,0.112-1.208,0.174c-0.771,0.111-1.553,0.224-2.348,0.338c-0.906,0.085-1.826,0.172-2.759,0.261
							c-0.931,0.108-1.88,0.138-2.84,0.181c-0.961,0.032-1.933,0.116-2.917,0.089c-7.868,0.097-16.478-1.118-24.85-3.935
							c-8.352-2.814-16.519-7.198-23.11-13.095c-3.255-2.949-6.191-6.293-7.948-10.029c-0.851-1.852-1.358-3.854-1.01-5.609
							c0.377-1.787,1.564-3.419,2.857-4.835c1.312-1.428,2.827-2.658,4.357-3.78c1.526-1.132,3.104-2.132,4.66-3.063
							c3.121-1.852,6.178-3.403,9.023-4.748c5.7-2.678,10.551-4.553,13.931-5.824c3.386-1.265,5.316-1.907,5.316-1.907
							s0.481-0.162,1.39-0.468c0.096-0.032,0.197-0.065,0.305-0.1l0,0l0,0l0.188,0.083c0.148,0.065,0.303,0.133,0.464,0.204
							c0.643,0.282,1.383,0.608,2.214,0.973c3.323,1.461,8.098,3.559,13.901,6.11c11.607,5.102,27.334,12.013,43.808,19.252
							c4.119,1.81,8.284,3.64,12.443,5.468l1.56,0.686c0.191,0.084,0.08,0.035,0.11,0.048l-0.002-0.002c0,0-0.002-0.026,0.003,0.074
							l0.026,0.309c0.017,0.881-0.404,1.827-0.886,2.7c-0.304,0.419-0.542,0.872-0.891,1.269l-1.054,1.186
							c-0.387,0.37-0.802,0.718-1.199,1.078c-0.394,0.365-0.801,0.715-1.255,1.02c-3.479,2.591-7.372,4.619-11.267,6.29
							c-1.922,0.897-3.889,1.63-5.814,2.365c-0.967,0.357-1.902,0.764-2.871,1.066c-0.883,0.296-1.758,0.59-2.623,0.88
							c-1.869,0.621-3.391,1.162-4.173,1.372C227.074,89.412,225.55,90.213,223.315,91.521c2.568-0.108,4.304-0.269,7.194-1.105
							c0.79-0.203,2.332-0.746,4.222-1.373c0.874-0.293,1.759-0.59,2.652-0.89c0.978-0.305,1.932-0.718,2.911-1.08
							c1.954-0.745,3.948-1.489,5.914-2.406c3.972-1.708,7.969-3.773,11.666-6.527c0.477-0.321,0.918-0.699,1.35-1.097
							c0.435-0.393,0.881-0.769,1.305-1.178l1.192-1.34c0.393-0.452,0.7-1.002,1.051-1.502c0.595-1.086,1.157-2.277,1.157-3.698
							l-0.041-0.539c0-0.188-0.092-0.479-0.172-0.744c-0.038-0.134-0.076-0.268-0.131-0.396c-0.011-0.078-0.07-0.11-0.139-0.137
							l-0.187-0.094c-0.221-0.109-0.57-0.291-0.644-0.316l-1.56-0.685c-4.159-1.827-8.325-3.657-12.443-5.467
							c-16.476-7.237-32.203-14.146-43.812-19.245c-5.805-2.55-10.579-4.647-13.902-6.107c-0.831-0.365-1.571-0.69-2.214-0.972
							c-0.408-0.179-0.784-0.344-1.13-0.496l-0.201-0.088l-0.205,0.064c-0.135,0.044-0.266,0.086-0.395,0.128
							c-0.148,0.049-0.289,0.095-0.423,0.139c-0.921,0.311-1.408,0.475-1.408,0.475s-1.952,0.648-5.368,1.924
							c-3.413,1.282-8.303,3.171-14.082,5.884c-2.885,1.363-5.991,2.938-9.191,4.836c-1.597,0.955-3.222,1.984-4.816,3.166
							c-1.598,1.171-3.194,2.46-4.637,4.027c-1.411,1.562-2.816,3.391-3.338,5.762c-0.467,2.425,0.213,4.768,1.144,6.827
							c1.955,4.139,5.038,7.597,8.42,10.674c6.844,6.12,15.221,10.605,23.796,13.499c8.593,2.891,17.426,4.136,25.494,4.037
							c1.01,0.026,2.006-0.058,2.99-0.091c0.984-0.044,1.958-0.075,2.912-0.186c0.956-0.091,1.898-0.18,2.827-0.269
							c0.814-0.117,1.616-0.232,2.405-0.346c0.444-0.065,0.859-0.126,1.237-0.182c0.758-0.097,1.355-0.255,1.761-0.325
							C219.459,93.526,221.05,92.724,223.315,91.521z"/>
					</g>
				</g>
				<g>
					<g>
						<path d="M377.997,100.079c-2.052-1.563-3.479-2.546-6.224-3.749c-10.217-4.435-33.47-14.53-57.888-25.13
							c-24.238-10.572-49.035-21.442-71.389-31.436c-11.168-5.011-21.755-9.764-31.245-14.317c-1.184-0.572-2.349-1.144-3.484-1.722
							c-0.567-0.29-1.126-0.581-1.67-0.877l-0.792-0.449l-0.549-0.354c-0.553-0.595-0.591-1.52-0.224-2.474
							c0.363-0.957,1.023-1.881,1.738-2.721c0.723-0.843,1.525-1.621,2.353-2.333l0.624-0.518l0.154-0.121l0.034-0.026
							c-1.89-3.39-0.553-0.929-0.987-1.68l-0.099,0.039l-0.393,0.155c-0.52,0.208-1.034,0.415-1.544,0.62
							c-2.027,0.837-3.977,1.643-5.842,2.413l0,0c-12.205,5.148-23.378,10.327-33.543,15.502
							c-10.161,5.179-19.319,10.358-27.351,15.704c-4.014,2.673-7.733,5.407-11.106,8.246c-3.348,2.864-6.389,5.811-8.77,9.098
							c-1.183,1.644-2.201,3.374-2.907,5.217c-0.715,1.823-1.062,3.839-0.871,5.725c0.285,3.663,1.494,6.995,3.136,9.747
							c1.644,2.767,3.667,4.992,5.691,6.845c2.023,1.867,4.097,3.331,6.044,4.581c3.915,2.485,7.376,4.09,10.146,5.271
							c2.776,1.174,4.879,1.92,6.273,2.401c1.4,0.468,2.088,0.698,2.088,0.698s0.819,0.249,3.087,0.938
							c2.274,0.663,6.021,1.707,11.964,2.85c2.976,0.551,6.497,1.135,10.693,1.508c4.214,0.348,9.06,0.256,14.57-0.099
							c5.5-0.479,11.674-1.24,18.561-2.501c0.862-0.152,1.734-0.315,2.618-0.497l0.665-0.132l0.279-0.056l-0.006,0.001l-0.001,0v0v0
							v-0.01l0.002,0.084l0.022,0.72c0.029,0.479,0.049,0.962,0.097,1.444c0.078,0.967,0.195,1.941,0.353,2.922
							c0.604,3.925,1.757,7.971,3.522,11.996c1.136,2.573,2.798,5.765,5.284,9.207c2.471,3.446,5.802,7.117,10.093,10.521
							c4.271,3.419,9.467,6.586,15.417,9.208c5.946,2.633,12.635,4.713,19.82,6.209c1.804,0.335,3.632,0.675,5.481,1.019
							c1.843,0.305,3.707,0.614,5.593,0.926c3.779,0.616,7.664,1.209,11.662,1.598c7.971,0.799,16.503,0.651,24.832-1.601
							c2.079-0.558,4.139-1.233,6.138-1.995c2.019-0.738,4.048-1.479,6.086-2.224c2.026-0.774,4.019-1.66,6.043-2.49
							c2.021-0.839,4.052-1.675,6.032-2.64c1.996-0.932,3.997-1.867,6.005-2.805c1.972-1.006,3.95-2.015,5.932-3.026l2.968-1.531
							l2.924-1.622c1.943-1.096,3.923-2.135,5.841-3.281c15.445-9.009,30.231-19.287,43.622-30.311l1.393-1.163l2.411-2.085
							l1.199-1.045l0.3-0.262c0.102-0.064-0.036-0.031-0.08-0.036l-0.187,0.007l-0.743,0.03l-2.972,0.12l-1.482,0.06l-0.37,0.015
							l-0.234,0.003l-0.395-0.002l-1.572-0.006c-1.049,0.019-2.091-0.074-3.131-0.116c-2.08-0.121-4.138-0.368-6.173-0.67
							c-1.011-0.19-2.026-0.334-3.023-0.559c-0.457-0.098-0.913-0.196-1.366-0.293c-0.372-0.073-0.725-0.176-1.067-0.257
							c-1.369-0.325-2.475-0.665-3.094-0.833C382.192,100.805,380.529,100.555,377.997,100.079c2.018,1.611,3.558,2.541,6.455,3.457
							c0.636,0.18,1.776,0.534,3.186,0.871c0.353,0.084,0.717,0.19,1.1,0.266c0.467,0.101,0.937,0.202,1.407,0.303
							c1.026,0.231,2.072,0.381,3.113,0.576c2.096,0.312,4.215,0.565,6.358,0.69c1.071,0.044,2.146,0.138,3.226,0.119l1.622,0.007
							l0.596,0.001l0.099-0.004c0.113-0.006,0.323-0.013,0.272-0.017l0.007-0.006l-1.092,0.91
							c-13.289,10.941-28.011,21.175-43.352,30.124c-1.906,1.139-3.872,2.17-5.803,3.259l-2.904,1.611l-2.946,1.52
							c-1.967,1.003-3.93,2.005-5.888,3.004c-1.992,0.93-3.978,1.858-5.957,2.783c-1.966,0.958-3.979,1.786-5.982,2.618
							c-2.006,0.823-3.981,1.703-5.989,2.469c-2.019,0.738-4.028,1.472-6.027,2.203c-1.998,0.761-3.985,1.411-5.991,1.95
							c-8.047,2.174-16.301,2.328-24.136,1.544c-3.928-0.381-7.771-0.967-11.536-1.58c-1.886-0.312-3.75-0.62-5.592-0.925
							c-1.821-0.338-3.621-0.673-5.397-1.003c-7.073-1.472-13.63-3.514-19.434-6.083c-5.807-2.559-10.849-5.636-14.981-8.942
							c-4.15-3.292-7.356-6.826-9.732-10.141c-2.392-3.31-3.988-6.375-5.08-8.846c-1.695-3.865-2.803-7.753-3.381-11.509
							c-0.15-0.938-0.262-1.868-0.336-2.786c-0.047-0.459-0.064-0.915-0.092-1.368l-0.021-0.674l-0.005-0.274l0.007-0.353
							l0.014-0.705l0.028-0.713l0.015-0.354c0.029-0.09-0.063-0.032-0.111-0.031l-0.168,0.036l-1.341,0.286
							c-0.575,0.117-1.146,0.233-1.714,0.349c-0.872,0.179-1.735,0.34-2.589,0.491c-6.821,1.25-12.935,2.002-18.358,2.476
							c-5.429,0.348-10.167,0.437-14.252,0.1c-4.095-0.364-7.571-0.938-10.499-1.481c-5.855-1.125-9.545-2.153-11.781-2.805
							c-2.229-0.678-3.035-0.922-3.035-0.922s-0.674-0.226-2.049-0.686c-1.369-0.473-3.432-1.205-6.146-2.353
							c-2.706-1.153-6.081-2.722-9.855-5.119c-1.877-1.206-3.867-2.611-5.782-4.381c-1.919-1.756-3.812-3.847-5.325-6.397
							c-1.513-2.541-2.606-5.562-2.868-8.901c-0.349-3.21,1.206-6.586,3.414-9.648c2.233-3.088,5.18-5.956,8.448-8.75
							c3.297-2.775,6.962-5.469,10.93-8.112c7.939-5.285,17.041-10.434,27.153-15.587c10.116-5.15,21.253-10.312,33.413-15.441l0,0
							c1.857-0.767,3.799-1.568,5.817-2.402c0.506-0.203,1.017-0.408,1.532-0.615l0.388-0.153l0.097-0.038
							c-0.411-0.759,0.987,1.673-0.91-1.707l-0.049,0.038l-0.178,0.139l-0.681,0.565c-0.894,0.77-1.757,1.604-2.565,2.546
							c-0.799,0.948-1.574,1.986-2.083,3.304c-0.246,0.658-0.417,1.41-0.354,2.22c0.066,0.819,0.368,1.614,0.96,2.263
							c0.101,0.096,0.205,0.189,0.313,0.276c0.099,0.077,0.155,0.105,0.235,0.16c0.146,0.094,0.302,0.201,0.444,0.282l0.856,0.486
							c0.569,0.311,1.144,0.61,1.722,0.904c1.155,0.589,2.329,1.165,3.521,1.742c9.539,4.576,20.12,9.327,31.298,14.343
							c22.364,10,47.164,20.872,71.404,31.445c24.424,10.596,47.682,20.687,57.9,25.12
							C373.757,99.295,375.451,99.66,377.997,100.079z"/>
					</g>
				</g>
			</g>
		</g>
		<g>
			<g>
				<path fill="#217E9D" d="M460.973,118.794L209.171,13.201c-1.178,0.935-7.362,6.095-4.688,9.438
					c2.949,3.687,174.026,77.427,174.026,77.427s12.754,6.398,30.232,5.163v14.008c0,0-59.255,45.245-80.769,52.266
					c-23.773,7.758-75.119,4.845-97.158-12.312c-22.037-17.156-18.275-19.307-18.275-19.307l-0.098-12.362l0.098-0.001
					c-84.928,1.075-95.088-31.176-95.088-31.176l-1.023-22.567l1.041,0.663c-1.428-24.095,86.044-59.075,91.612-61.277
					l-21.333-8.946L37.94,74.455L317.38,232.887L462.059,119.25L460.973,118.794z"/>
				<g>
					<g>
						<path d="M460.973,118.794c-2.068-1.543-3.505-2.511-6.263-3.684c-23.68-9.932-77.05-32.315-133.384-55.942
							c-29.548-12.391-59.484-24.945-88.935-37.295c-7.362-3.088-14.694-6.162-21.982-9.218l-1.05-0.435l-0.343-0.141
							c-0.099,0.056-0.193,0.148-0.29,0.22l-0.576,0.466c-0.466,0.39-0.796,0.686-1.186,1.051c-0.745,0.703-1.457,1.45-2.107,2.272
							c-0.645,0.825-1.246,1.72-1.653,2.79c-0.407,1.035-0.576,2.438,0.044,3.644c0.072,0.147,0.154,0.289,0.244,0.421
							c0.095,0.139,0.155,0.24,0.346,0.443c0.357,0.325,0.535,0.408,0.777,0.568c0.452,0.277,0.89,0.517,1.33,0.755
							c0.88,0.472,1.759,0.917,2.64,1.355c1.761,0.875,3.526,1.72,5.29,2.555c14.127,6.634,28.145,12.845,41.819,18.931
							c27.364,12.13,53.444,23.5,77.308,33.876c11.938,5.174,23.318,10.107,34.033,14.751c2.68,1.158,5.318,2.298,7.914,3.419
							c1.288,0.566,2.604,1.101,3.84,1.68c1.309,0.581,2.617,1.077,3.932,1.53c5.255,1.793,10.527,2.838,15.634,3.296
							c3.056,0.272,6.113,0.333,9.142,0.181l0.273-0.014h-0.004l-0.003,0l-0.001-0.004v2.13c0,1.483,0,2.962,0,4.436
							c0,1.474,0,2.943,0,4.407v1.097v0.417l0.001-0.002l-1.509,1.142c-2.328,1.738-4.641,3.465-6.938,5.18
							c-9.221,6.819-18.284,13.319-27.192,19.45c-8.913,6.121-17.66,11.903-26.358,17.052c-4.352,2.561-8.693,4.981-13.088,6.998
							c-4.361,2.072-8.926,3.253-13.523,4.112c-9.184,1.667-18.236,2.042-26.85,1.871c-8.623-0.198-16.852-1.023-24.573-2.37
							c-7.718-1.355-14.944-3.235-21.474-5.743c-3.261-1.257-6.346-2.675-9.189-4.285c-1.42-0.806-2.781-1.659-4.068-2.564
							c-1.277-0.898-2.5-1.894-3.721-2.853c-4.832-3.863-9.263-7.588-12.818-11.422c-0.876-0.96-1.696-1.937-2.35-2.928
							c-0.32-0.491-0.604-1.001-0.752-1.448c-0.076-0.215-0.096-0.429-0.084-0.47c0.06,0.008-0.176-0.039-0.238-0.077
							c-0.102-0.049-0.156-0.071-0.273-0.191c-0.204-0.916-0.031,1.402,0.752-0.33v-0.058l-0.001-0.115l-0.002-0.229
							c-0.02-2.439-0.038-4.763-0.056-6.971c-0.008-1.104-0.017-2.178-0.025-3.223c-0.006-0.779-0.012-1.547-0.018-2.304
							l-0.004-0.38c0.029-0.093-0.08-0.045-0.132-0.057l-0.188,0.001l-0.754,0.007c-0.398,0.004-0.793,0.008-1.185,0.012
							c-1.966,0.017-3.812,0.018-5.536,0c-3.45-0.028-6.415-0.114-8.879-0.212c-4.926-0.201-7.847-0.435-8.64-0.491
							c-0.793-0.065,0.54,0.059,4.14,0.274l0,0c-5.873-0.328-11.398-0.904-14.287-1.267c-2.889-0.377-3.164-0.39,1.479,0.176
							c-21.306-2.428-37.325-7.841-47.825-14.799c-5.244-3.456-9.115-7.26-11.549-10.988c-0.603-0.93-1.122-1.861-1.502-2.755
							l-0.128-0.322c-0.011-0.041-0.003,0.013-0.007-0.037l-0.009-0.192c-0.012-0.256-0.022-0.509-0.034-0.759
							c-0.023-0.5-0.045-0.988-0.066-1.465c-0.087-1.907-0.165-3.629-0.235-5.184c-0.564-12.44-0.644-14.178-0.644-14.178
							s0-0.02-0.006-0.127c-0.002-0.054-0.006-0.13-0.01-0.237c-0.003-0.054-0.006-0.115-0.009-0.185l-0.003-0.054V73.74v-0.007
							c-2.994,1.731-0.829,0.48-1.497,0.867l0.001,0.001l0.004,0.002l0.024,0.016c0.034,0.021,0.069,0.044,0.106,0.068
							c0.151,0.096,0.336,0.213,0.561,0.356c0.057,0.036,0.115,0.073,0.177,0.113l0.094,0.06l0.049,0.031l0.013,0.008l0.006,0.004
							l0.003,0.002c0.669-0.393-1.491,0.881,1.5-0.879l-0.001-0.026c-0.004-0.143-0.01-0.298-0.014-0.466
							c-0.005-0.672,0.071-1.561,0.365-2.702c0.586-2.273,2.242-5.558,5.905-9.51c3.642-3.96,9.191-8.583,17.111-13.821h0.001
							c0.027-0.018,0.055-0.037,1.07-0.704l0.001,0c0.651-0.418,1.868-1.227,4.708-2.971c2.845-1.734,7.312-4.415,14.607-8.311
							c7.301-3.882,17.436-8.986,31.706-15.27c3.568-1.568,7.396-3.208,11.507-4.9c1.463-0.591,2.948-1.191,4.458-1.8
							c0.54-0.213,1.081-0.428,1.624-0.644c0.042-0.027,0.195-0.053,0.145-0.081l-0.201-0.084l-0.402-0.168l-0.806-0.338
							c-1.028-0.431-2.064-0.866-3.108-1.304c-2.188-0.917-4.443-1.863-6.769-2.838s-4.721-1.979-7.188-3.014
							c-1.233-0.517-2.485-1.042-3.755-1.575l-1.029-0.431c-0.318-0.093-0.643-0.408-0.955-0.132l-0.715,0.335
							c-0.633,0.296-1.27,0.595-1.91,0.896c-5.132,2.406-10.555,4.948-16.286,7.635c-2.247,1.054-4.874,2.285-21.884,10.26
							c-9.252,4.338-23.246,10.898-47.487,22.264c-12.121,5.683-26.804,12.566-44.737,20.975c-4.483,2.102-9.17,4.299-14.071,6.597
							c-0.861,0.404-1.727,0.81-2.598,1.218c-0.62,0.291-1.242,0.583-1.866,0.875c-0.065,0.017-0.066,0.037-0.002,0.059l0.112,0.064
							l0.225,0.127l0.45,0.255l0.902,0.512c1.458,0.826,2.931,1.662,4.42,2.506c2.458,1.394,4.969,2.817,7.534,4.271
							c10.259,5.817,21.382,12.124,33.452,18.966c33.895,19.217,81.594,46.263,135.614,76.892
							c27.011,15.314,55.601,31.524,84.835,48.099c3.654,2.072,7.318,4.149,10.99,6.232l1.378,0.781l0.833,0.473l0.692,0.392
							c0.119,0.117,0.227,0.083,0.328-0.038l0.312-0.246l2.772-2.177l4.996-3.924c6.666-5.236,13.355-10.491,20.057-15.753
							c13.398-10.525,26.839-21.081,40.213-31.585c30.282-23.789,59.371-46.64,71.94-56.515c1.954-1.551,3.064-2.723,4.312-4.26
							c-0.021-0.161-0.043-0.321-0.066-0.493C461.802,118.925,461.398,118.862,460.973,118.794c0.347,0.256,0.674,0.5,0.975,0.721v0
							l0,0l-0.066-0.493l0,0c-1.789,0.848-3.19,1.648-5.16,3.18c-12.572,9.873-41.664,32.719-71.95,56.503
							c-13.374,10.504-26.813,21.061-40.213,31.585c-6.7,5.263-13.39,10.517-20.057,15.753l-4.995,3.924l-2.217,1.741
							c0.002-0.002,0.004-0.001,0.006,0l-0.545-0.309l-1.379-0.781c-3.672-2.082-7.336-4.16-10.99-6.231
							c-29.234-16.575-57.825-32.784-84.836-48.098c-54.021-30.627-101.722-57.671-135.617-76.887
							C71.859,92.56,60.736,86.254,50.477,80.438c-2.564-1.455-5.076-2.878-7.534-4.271c-0.969-0.549-1.927-1.093-2.876-1.631
							c0.004,0.001,0.003,0.002,0,0.003l-0.002,0l0,0l0.179-0.084l0.921-0.432c4.9-2.298,9.587-4.495,14.07-6.597
							c17.934-8.409,32.616-15.293,44.737-20.976c24.241-11.366,38.233-17.927,47.486-22.266
							c17.009-7.975,19.636-9.207,21.884-10.26c5.73-2.687,11.153-5.229,16.285-7.636c0.642-0.301,1.278-0.599,1.911-0.896
							l0.232-0.109l0,0h-0.001l0.883,0.371c1.271,0.532,2.521,1.057,3.756,1.575c2.467,1.035,4.862,2.039,7.188,3.014
							s4.58,1.921,6.768,2.838c0.195,0.082,0.144,0.061,0.148,0.062v0h-0.001v0l0.001,0l0,0l-0.282,0.115
							c-0.524,0.214-1.046,0.428-1.562,0.639c-4.128,1.7-7.968,3.345-11.549,4.918c-14.319,6.305-24.496,11.43-31.838,15.334
							c-7.337,3.918-11.839,6.619-14.709,8.37c-2.865,1.759-4.096,2.577-4.754,3h-0.001c-1.026,0.675-1.055,0.693-1.082,0.711
							l-0.001,0c-8.009,5.298-13.675,10.001-17.47,14.126c-3.812,4.109-5.673,7.686-6.356,10.332
							c-0.343,1.324-0.436,2.394-0.431,3.209c0.007,0.205,0.012,0.394,0.018,0.568l0.001,0.032c2.993-1.756,0.828-0.488,1.495-0.88
							l-0.003-0.002l-0.007-0.004l-0.012-0.008l-0.049-0.031l-0.094-0.06c-0.062-0.039-0.121-0.077-0.177-0.112
							c-0.226-0.144-0.409-0.261-0.56-0.357c-0.038-0.024-0.074-0.046-0.107-0.068l-0.025-0.016l-0.002-0.002l-0.002-0.001
							c-0.669,0.387,1.494-0.866-1.5,0.866l0.001,0.007l0.001,0.015l0.002,0.055c0.004,0.071,0.006,0.133,0.009,0.187
							c0.005,0.108,0.009,0.186,0.011,0.24c0.005,0.109,0.006,0.129,0.006,0.129s0.08,1.76,0.655,14.356
							c0.072,1.575,0.153,3.318,0.241,5.25c0.023,0.482,0.046,0.977,0.068,1.483c0.012,0.253,0.024,0.509,0.036,0.769l0.009,0.195
							c0.01,0.079,0.068,0.254,0.101,0.336l0.162,0.409c0.447,1.05,1.012,2.053,1.665,3.062c2.625,4.017,6.686,7.975,12.109,11.553
							c10.862,7.191,27.167,12.654,48.676,15.109c-4.689-0.572-4.411-0.559-1.494-0.178c2.918,0.367,8.495,0.948,14.413,1.279l0,0
							c-3.628-0.217-4.972-0.342-4.173-0.276c0.8,0.057,3.745,0.293,8.707,0.496c2.482,0.099,5.467,0.186,8.939,0.215
							c1.736,0.017,3.594,0.017,5.57,0l0.307-0.003h-0.001l-0.001,0c0,0.004,0-0.01,0,0.008c0.002,0.258,0.004,0.517,0.006,0.778
							c0.008,1.045,0.017,2.119,0.025,3.223c0.018,2.207,0.036,4.531,0.055,6.971l0.002,0.229l0.001,0.115l0.001,0.057
							c0.848-1.622,0.103-0.352,0.268-0.685c-0.36,0.357-0.436,0.695-0.488,0.984c-0.07,0.574,0.045,0.984,0.16,1.359
							c0.25,0.74,0.603,1.333,0.975,1.912c0.754,1.142,1.623,2.168,2.542,3.177c3.707,3.993,8.169,7.731,13.044,11.633
							c1.225,0.961,2.457,1.967,3.812,2.921c1.345,0.947,2.76,1.833,4.23,2.667c2.943,1.667,6.113,3.122,9.45,4.409
							c6.679,2.565,14.019,4.471,21.839,5.845c7.824,1.364,16.143,2.198,24.867,2.399c8.717,0.171,17.869-0.202,27.25-1.903
							c2.342-0.437,4.696-0.966,7.043-1.646c2.35-0.66,4.693-1.583,6.935-2.61c4.505-2.067,8.883-4.512,13.271-7.093
							c8.763-5.188,17.536-10.987,26.474-17.124c8.93-6.147,18.01-12.658,27.246-19.489c2.303-1.719,4.62-3.449,6.953-5.191
							l1.976-1.498l0.218-0.166c0.102-0.042,0.103-0.132,0.094-0.229v-0.548v-0.679v-1.097c0-1.464,0-2.933,0-4.407
							c0-1.474,0-2.953,0-4.436v-2.327v-1.119v-0.56c-0.025-0.066,0.062-0.252-0.076-0.198l-0.28,0.018l-1.967,0.118
							c-2.937,0.147-5.902,0.089-8.869-0.176c-4.956-0.443-10.087-1.462-15.171-3.198c-1.268-0.437-2.537-0.919-3.77-1.466
							c-1.281-0.599-2.563-1.118-3.862-1.689c-2.595-1.121-5.233-2.261-7.913-3.418c-10.713-4.644-22.093-9.577-34.029-14.751
							c-23.86-10.376-49.938-21.746-77.293-33.873c-13.666-6.082-27.689-12.296-41.775-18.912c-1.757-0.832-3.514-1.673-5.255-2.539
							c-0.87-0.433-1.737-0.872-2.585-1.326c-0.421-0.228-0.843-0.459-1.227-0.696c-0.472-0.294-0.43-0.261-0.644-0.639
							c-0.622-1.142,0.263-2.939,1.395-4.339c0.571-0.723,1.222-1.409,1.911-2.058c0.329-0.311,0.738-0.671,1.028-0.915
							c-0.001,0.001-0.003,0.004-0.005,0.002l-0.002-0.001l0.317,0.133c7.288,3.056,14.62,6.131,21.982,9.219
							c29.45,12.35,59.387,24.904,88.935,37.295c56.337,23.622,109.709,46,133.39,55.929
							C456.725,118.054,458.423,118.4,460.973,118.794z"/>
					</g>
				</g>
			</g>
			<g>
				<path fill="#217E9D" d="M323.806,141.497c13.431-1.492,23.294-7.703,30.015-13.945L280.449,94.3c0,0-30.313,9.353-35.801,22.431
					C257.87,132.573,299.503,144.197,323.806,141.497z"/>
				<g>
					<g>
						<path d="M323.806,141.497c1.271,0.114,2.356,0.186,3.498,0.17c0.569-0.017,1.161-0.016,1.784-0.115
							c0.62-0.113,1.285-0.258,2.026-0.443c0.401-0.101,1.003-0.253,1.749-0.442c0.375-0.087,0.781-0.198,1.204-0.362
							c0.66-0.233,1.332-0.471,2.014-0.712c0.763-0.292,1.571-0.504,2.324-0.883c0.766-0.348,1.542-0.7,2.328-1.057
							c0.39-0.184,0.794-0.347,1.18-0.55c0.382-0.212,0.767-0.425,1.152-0.64c0.772-0.429,1.553-0.864,2.341-1.302
							c0.754-0.497,1.515-0.998,2.282-1.504c0.382-0.256,0.773-0.501,1.151-0.77l1.109-0.849c0.732-0.58,1.512-1.115,2.223-1.744
							c1.036-0.905,2.08-1.816,3.13-2.734l0.268-0.233c0.087-0.045-0.012-0.063-0.059-0.089l-0.163-0.074l-0.648-0.294l-1.303-0.59
							l-1.578-0.715c-1.742-0.789-3.502-1.586-5.273-2.39c-7.09-3.213-14.383-6.517-21.514-9.749
							c-14.261-6.462-27.875-12.63-37.924-17.183c-1.257-0.569-2.457-1.113-3.596-1.629c-0.57-0.258-1.124-0.509-1.662-0.752
							c-0.316-0.143-0.627-0.284-0.934-0.422l-0.391-0.176c-0.135,0.02-0.27,0.079-0.404,0.116l-0.568,0.182
							c-2.132,0.699-3.948,1.364-5.437,1.928c-2.972,1.137-4.616,1.852-4.616,1.852s-1.661,0.674-4.546,2.027
							c-2.874,1.367-7.004,3.388-11.631,6.579c-2.278,1.636-4.735,3.526-6.872,6.104c-0.274,0.313-0.537,0.643-0.78,0.996
							c-0.245,0.351-0.518,0.682-0.732,1.065c-0.219,0.379-0.471,0.739-0.665,1.142l-0.352,0.729l-0.273,0.568l-0.137,0.285
							c-0.045,0.051-0.009,0.09,0.033,0.128l0.104,0.117c0.402,0.449,0.808,0.9,1.214,1.355c0.289,0.337,0.603,0.65,0.924,0.958
							c0.318,0.311,0.639,0.624,0.961,0.938c0.338,0.295,0.677,0.592,1.018,0.89c5.505,4.736,12.44,8.362,19.708,11.407
							c7.297,3.019,15.033,5.372,22.679,7.083c3.822,0.854,7.626,1.543,11.35,2.059c1.859,0.265,3.701,0.477,5.516,0.64
							c0.906,0.087,1.806,0.167,2.699,0.217c0.445,0.03,0.89,0.059,1.331,0.088c0.373,0.017,0.744,0.034,1.113,0.05
							c1.998,0.1,3.643,0.083,4.463,0.092C319.655,142.81,321.38,142.357,323.806,141.497c-2.558-0.379-4.229-0.606-7.19-0.586
							c-0.803-0.018-2.408-0.004-4.367-0.104c-0.361-0.016-0.726-0.033-1.092-0.049c-0.433-0.029-0.868-0.058-1.307-0.087
							c-0.876-0.05-1.76-0.128-2.65-0.214c-1.783-0.16-3.596-0.369-5.429-0.63c-3.667-0.508-7.418-1.188-11.19-2.031
							c-7.543-1.687-15.182-4.011-22.355-6.979c-7.141-2.985-13.936-6.559-19.179-11.077c-0.325-0.283-0.647-0.565-0.969-0.846
							c-0.304-0.297-0.606-0.592-0.906-0.886c-0.305-0.29-0.6-0.585-0.867-0.899l-0.489-0.543c-0.002-0.002,0,0,0-0.001l0.193-0.402
							c0.166-0.349,0.395-0.67,0.585-1.004c0.185-0.337,0.437-0.639,0.655-0.953c0.217-0.317,0.455-0.617,0.709-0.905
							c1.949-2.36,4.298-4.182,6.488-5.752c4.461-3.08,8.52-5.074,11.341-6.415c2.835-1.331,4.473-1.996,4.473-1.996
							s1.62-0.704,4.55-1.824c1.466-0.555,3.264-1.213,5.349-1.896l0.196-0.063c0.068-0.022,0.02-0.006,0.034-0.011h-0.001
							c0.216,0.098,0.435,0.197,0.656,0.297c0.538,0.244,1.092,0.495,1.662,0.753c1.139,0.516,2.339,1.061,3.595,1.63
							c10.048,4.555,23.661,10.726,37.922,17.19c7.131,3.231,14.423,6.537,21.513,9.75c1.771,0.803,3.531,1.601,5.272,2.39
							l1.026,0.465c-0.003-0.001-0.009-0.003-0.008-0.004l0.002-0.002l0.002-0.001c-0.018,0.015,0.049-0.044-0.078,0.067
							l-1.039,0.908c-0.686,0.608-1.438,1.124-2.146,1.684l-1.07,0.82c-0.364,0.258-0.743,0.495-1.11,0.741
							c-0.74,0.488-1.474,0.972-2.199,1.451c-0.76,0.422-1.512,0.84-2.256,1.253c-0.371,0.207-0.741,0.413-1.109,0.618
							c-0.371,0.196-0.76,0.352-1.135,0.529c-0.757,0.344-1.504,0.683-2.24,1.018c-0.725,0.367-1.503,0.567-2.236,0.849
							c-0.656,0.232-1.302,0.461-1.937,0.686c-0.406,0.159-0.798,0.266-1.158,0.35c-0.718,0.185-1.296,0.334-1.681,0.434
							c-0.711,0.186-1.341,0.371-1.922,0.564c-0.584,0.18-1.133,0.299-1.659,0.475C325.998,140.591,325.008,140.991,323.806,141.497
							z"/>
					</g>
				</g>
			</g>
			<g>
				<path fill="#217E9D" d="M188.889,52.806c0,0-21.67,0.669-39.861,18.879c10.528,13.621,39.661,29.56,74.8,19.823
					c13.089-3.627,21.894-7.13,27.801-10.27l-0.098-0.043L188.889,52.806z"/>
				<g>
					<g>
						<path d="M188.889,52.806c-2.543-0.459-4.343-0.529-7.324,0.066c-0.403,0.084-1.008,0.215-1.753,0.397
							c-0.372,0.094-0.779,0.197-1.216,0.308c-0.27,0.073-0.543,0.147-0.817,0.222c-0.354,0.102-0.712,0.205-1.071,0.308
							c-0.719,0.211-1.443,0.442-2.175,0.686c-1.463,0.488-2.947,1.042-4.444,1.66c-5.987,2.472-12.158,6.082-17.699,10.801
							c-0.695,0.586-1.377,1.193-2.05,1.813l-1.001,0.941l-1.586,1.556c0.371,0.655,1.215,1.59,1.357,1.787
							c0.296,0.36,0.604,0.708,0.914,1.056c0.618,0.696,1.268,1.361,1.928,2.015c2.65,2.606,5.588,4.891,8.637,6.91
							c6.115,4.027,12.714,6.925,19.023,8.833c6.316,1.914,12.344,2.832,17.472,3.156c5.136,0.328,9.373,0.092,12.302-0.169
							c2.932-0.274,4.568-0.55,4.568-0.55c0,0,1.645-0.221,4.528-0.803c2.897-0.563,6.969-1.678,11.836-3.164
							c4.873-1.504,10.587-3.406,16.603-6.069c0.751-0.335,1.506-0.683,2.264-1.045c0.414-0.203,0.831-0.407,1.25-0.612
							c0.737-0.381,1.478-0.765,2.221-1.149l1.115-0.586c-0.311-0.178-0.745-0.352-1.113-0.529
							c-0.768-0.352-1.538-0.706-2.311-1.061c-0.814-0.369-1.635-0.741-2.459-1.116c-3.166-1.435-6.41-2.906-9.693-4.394
							c-17.256-7.817-36.078-16.345-42.344-19.183C193.113,53.666,191.426,53.271,188.889,52.806
							c2.023,1.601,3.432,2.609,6.155,3.86c6.265,2.84,25.085,11.372,42.34,19.194c3.282,1.487,6.528,2.958,9.693,4.392
							c0.757,0.343,1.51,0.684,2.257,1.022c-0.002-0.002-0.013-0.003-0.006-0.006l0.006-0.002l-0.996,0.485
							c-0.74,0.354-1.479,0.694-2.215,1.023c-5.896,2.613-11.553,4.499-16.379,5.99c-4.846,1.479-8.841,2.574-11.656,3.121
							c-2.816,0.569-4.422,0.786-4.422,0.786c0,0-1.598,0.268-4.458,0.535c-2.858,0.254-6.992,0.482-11.999,0.162
							c-5-0.317-10.875-1.213-17.03-3.08c-6.147-1.858-12.577-4.687-18.511-8.596c-2.957-1.958-5.799-4.172-8.34-6.672
							c-0.633-0.626-1.254-1.264-1.844-1.926c-0.537-0.591-1.392-1.637-1.139-1.329l-0.006,0.005l-0.001,0.001l0.119-0.117
							l0.24-0.232l0.972-0.913c0.653-0.602,1.315-1.19,1.99-1.76c5.377-4.58,11.365-8.083,17.179-10.484
							c1.454-0.6,2.896-1.139,4.315-1.612c0.71-0.236,1.413-0.461,2.111-0.666c0.349-0.101,0.695-0.2,1.039-0.299
							c0.267-0.072,0.531-0.144,0.793-0.215c0.423-0.108,0.818-0.209,1.178-0.301c0.725-0.167,1.309-0.303,1.697-0.393
							C184.859,54.174,186.438,53.59,188.889,52.806z"/>
					</g>
				</g>
			</g>
		</g>
	</g>
</g>
</svg>
